<svg xmlns="http://www.w3.org/2000/svg" xmlns:xlink="http://www.w3.org/1999/xlink" width="250" zoomAndPan="magnify" viewBox="0 0 187.5 187.499992" height="250" preserveAspectRatio="xMidYMid meet" version="1.0"><defs><g/><clipPath id="f274a6d5bf"><path d="M 5.300781 74.410156 L 175.746094 74.410156 L 175.746094 107.691406 L 5.300781 107.691406 Z M 5.300781 74.410156 " clip-rule="nonzero"/></clipPath><clipPath id="b101c9dfc6"><path d="M 175.695312 74.410156 L 5.300781 74.410156 L 12.3125 91.050781 L 5.300781 107.691406 L 175.695312 107.691406 L 168.683594 91.050781 Z M 175.695312 74.410156 " clip-rule="nonzero"/></clipPath><clipPath id="cd148ea3a6"><path d="M 0.300781 0.410156 L 170.746094 0.410156 L 170.746094 33.691406 L 0.300781 33.691406 Z M 0.300781 0.410156 " clip-rule="nonzero"/></clipPath><clipPath id="3e91878256"><path d="M 170.695312 0.410156 L 0.300781 0.410156 L 7.3125 17.050781 L 0.300781 33.691406 L 170.695312 33.691406 L 163.683594 17.050781 Z M 170.695312 0.410156 " clip-rule="nonzero"/></clipPath><clipPath id="284b47990a"><rect x="0" width="171" y="0" height="34"/></clipPath><clipPath id="42390e8911"><path d="M 21.730469 23.65625 L 155.90625 23.65625 L 155.90625 157.835938 L 21.730469 157.835938 Z M 21.730469 23.65625 " clip-rule="nonzero"/></clipPath><clipPath id="a1b66e7e26"><path d="M 88.820312 23.65625 C 51.765625 23.65625 21.730469 53.695312 21.730469 90.746094 C 21.730469 127.800781 51.765625 157.835938 88.820312 157.835938 C 125.871094 157.835938 155.90625 127.800781 155.90625 90.746094 C 155.90625 53.695312 125.871094 23.65625 88.820312 23.65625 Z M 88.820312 23.65625 " clip-rule="nonzero"/></clipPath><clipPath id="3f1866ec17"><path d="M 0.730469 0.65625 L 134.90625 0.65625 L 134.90625 134.835938 L 0.730469 134.835938 Z M 0.730469 0.65625 " clip-rule="nonzero"/></clipPath><clipPath id="7ea7109817"><path d="M 67.820312 0.65625 C 30.765625 0.65625 0.730469 30.695312 0.730469 67.746094 C 0.730469 104.800781 30.765625 134.835938 67.820312 134.835938 C 104.871094 134.835938 134.90625 104.800781 134.90625 67.746094 C 134.90625 30.695312 104.871094 0.65625 67.820312 0.65625 Z M 67.820312 0.65625 " clip-rule="nonzero"/></clipPath><clipPath id="f1a7392411"><rect x="0" width="135" y="0" height="135"/></clipPath><clipPath id="f0cc91ff7b"><path d="M 27.789062 29.714844 L 149.847656 29.714844 L 149.847656 151.777344 L 27.789062 151.777344 Z M 27.789062 29.714844 " clip-rule="nonzero"/></clipPath><clipPath id="cec4d3d397"><path d="M 88.820312 29.714844 C 55.113281 29.714844 27.789062 57.039062 27.789062 90.746094 C 27.789062 124.453125 55.113281 151.777344 88.820312 151.777344 C 122.523438 151.777344 149.847656 124.453125 149.847656 90.746094 C 149.847656 57.039062 122.523438 29.714844 88.820312 29.714844 Z M 88.820312 29.714844 " clip-rule="nonzero"/></clipPath><clipPath id="cd3ea971fc"><path d="M 0.789062 0.714844 L 122.847656 0.714844 L 122.847656 122.777344 L 0.789062 122.777344 Z M 0.789062 0.714844 " clip-rule="nonzero"/></clipPath><clipPath id="838831bdd5"><path d="M 61.820312 0.714844 C 28.113281 0.714844 0.789062 28.039062 0.789062 61.746094 C 0.789062 95.453125 28.113281 122.777344 61.820312 122.777344 C 95.523438 122.777344 122.847656 95.453125 122.847656 61.746094 C 122.847656 28.039062 95.523438 0.714844 61.820312 0.714844 Z M 61.820312 0.714844 " clip-rule="nonzero"/></clipPath><clipPath id="67dbd39a0e"><rect x="0" width="123" y="0" height="123"/></clipPath><clipPath id="18ba68dafa"><path d="M 32.058594 33.984375 L 145.582031 33.984375 L 145.582031 147.507812 L 32.058594 147.507812 Z M 32.058594 33.984375 " clip-rule="nonzero"/></clipPath><clipPath id="9021c0f376"><path d="M 88.820312 33.984375 C 57.46875 33.984375 32.058594 59.398438 32.058594 90.746094 C 32.058594 122.09375 57.46875 147.507812 88.820312 147.507812 C 120.167969 147.507812 145.582031 122.09375 145.582031 90.746094 C 145.582031 59.398438 120.167969 33.984375 88.820312 33.984375 Z M 88.820312 33.984375 " clip-rule="nonzero"/></clipPath><clipPath id="069f9c95a2"><path d="M 0.0585938 0.984375 L 113.582031 0.984375 L 113.582031 114.507812 L 0.0585938 114.507812 Z M 0.0585938 0.984375 " clip-rule="nonzero"/></clipPath><clipPath id="3f18e42f77"><path d="M 56.820312 0.984375 C 25.46875 0.984375 0.0585938 26.398438 0.0585938 57.746094 C 0.0585938 89.09375 25.46875 114.507812 56.820312 114.507812 C 88.167969 114.507812 113.582031 89.09375 113.582031 57.746094 C 113.582031 26.398438 88.167969 0.984375 56.820312 0.984375 Z M 56.820312 0.984375 " clip-rule="nonzero"/></clipPath><clipPath id="a14d4129f2"><rect x="0" width="114" y="0" height="115"/></clipPath><clipPath id="2d051b0071"><path d="M 40.042969 41.972656 L 137.59375 41.972656 L 137.59375 139.519531 L 40.042969 139.519531 Z M 40.042969 41.972656 " clip-rule="nonzero"/></clipPath><clipPath id="b5381a5755"><path d="M 88.820312 41.972656 C 61.882812 41.972656 40.042969 63.808594 40.042969 90.746094 C 40.042969 117.683594 61.882812 139.519531 88.820312 139.519531 C 115.757812 139.519531 137.59375 117.683594 137.59375 90.746094 C 137.59375 63.808594 115.757812 41.972656 88.820312 41.972656 Z M 88.820312 41.972656 " clip-rule="nonzero"/></clipPath><clipPath id="fc4cb66f81"><path d="M 0.0429688 0.972656 L 97.59375 0.972656 L 97.59375 98.519531 L 0.0429688 98.519531 Z M 0.0429688 0.972656 " clip-rule="nonzero"/></clipPath><clipPath id="02460def9e"><path d="M 48.820312 0.972656 C 21.882812 0.972656 0.0429688 22.808594 0.0429688 49.746094 C 0.0429688 76.683594 21.882812 98.519531 48.820312 98.519531 C 75.757812 98.519531 97.59375 76.683594 97.59375 49.746094 C 97.59375 22.808594 75.757812 0.972656 48.820312 0.972656 Z M 48.820312 0.972656 " clip-rule="nonzero"/></clipPath><clipPath id="89a0e61954"><rect x="0" width="98" y="0" height="99"/></clipPath><clipPath id="79870a9e07"><path d="M 36.464844 76.28125 L 139.988281 76.28125 L 139.988281 105.214844 L 36.464844 105.214844 Z M 36.464844 76.28125 " clip-rule="nonzero"/></clipPath><clipPath id="137ab8bc7e"><path d="M 0.464844 0.28125 L 103.988281 0.28125 L 103.988281 29.214844 L 0.464844 29.214844 Z M 0.464844 0.28125 " clip-rule="nonzero"/></clipPath><clipPath id="7183aa8afc"><rect x="0" width="104" y="0" height="30"/></clipPath><clipPath id="02fbaaba4f"><path d="M 38.066406 85.429688 L 47.667969 85.429688 L 47.667969 94.566406 L 38.066406 94.566406 Z M 38.066406 85.429688 " clip-rule="nonzero"/></clipPath><clipPath id="973e973d1a"><path d="M 42.859375 85.429688 L 43.992188 88.921875 L 47.652344 88.921875 L 44.691406 91.078125 L 45.824219 94.566406 L 42.859375 92.410156 L 39.898438 94.566406 L 41.03125 91.078125 L 38.066406 88.921875 L 41.730469 88.921875 Z M 42.859375 85.429688 " clip-rule="nonzero"/></clipPath><clipPath id="61088e3a1b"><path d="M 0.0664062 0.429688 L 9.667969 0.429688 L 9.667969 9.566406 L 0.0664062 9.566406 Z M 0.0664062 0.429688 " clip-rule="nonzero"/></clipPath><clipPath id="696d45ae0e"><path d="M 4.859375 0.429688 L 5.992188 3.921875 L 9.652344 3.921875 L 6.691406 6.078125 L 7.824219 9.566406 L 4.859375 7.410156 L 1.898438 9.566406 L 3.03125 6.078125 L 0.0664062 3.921875 L 3.730469 3.921875 Z M 4.859375 0.429688 " clip-rule="nonzero"/></clipPath><clipPath id="27d11f0121"><rect x="0" width="10" y="0" height="10"/></clipPath><clipPath id="cea2e29099"><path d="M 132.09375 85.429688 L 141.695312 85.429688 L 141.695312 94.566406 L 132.09375 94.566406 Z M 132.09375 85.429688 " clip-rule="nonzero"/></clipPath><clipPath id="cfef19df8c"><path d="M 136.890625 85.429688 L 138.019531 88.921875 L 141.683594 88.921875 L 138.71875 91.078125 L 139.851562 94.566406 L 136.890625 92.410156 L 133.925781 94.566406 L 135.058594 91.078125 L 132.09375 88.921875 L 135.757812 88.921875 Z M 136.890625 85.429688 " clip-rule="nonzero"/></clipPath><clipPath id="c2d1812b2e"><path d="M 0.09375 0.429688 L 9.695312 0.429688 L 9.695312 9.566406 L 0.09375 9.566406 Z M 0.09375 0.429688 " clip-rule="nonzero"/></clipPath><clipPath id="cf769b2e25"><path d="M 4.890625 0.429688 L 6.019531 3.921875 L 9.683594 3.921875 L 6.71875 6.078125 L 7.851562 9.566406 L 4.890625 7.410156 L 1.925781 9.566406 L 3.058594 6.078125 L 0.09375 3.921875 L 3.757812 3.921875 Z M 4.890625 0.429688 " clip-rule="nonzero"/></clipPath><clipPath id="6a4a72ec7e"><rect x="0" width="10" y="0" height="10"/></clipPath><clipPath id="382d5b9a27"><path d="M 85 123 L 97.601562 123 L 97.601562 135 L 85 135 Z M 85 123 " clip-rule="nonzero"/></clipPath><clipPath id="fa0637f878"><path d="M 84.886719 122 L 97.601562 122 L 97.601562 135.316406 L 84.886719 135.316406 Z M 84.886719 122 " clip-rule="nonzero"/></clipPath><clipPath id="15390559fe"><rect x="0" width="90" y="0" height="32"/></clipPath></defs><path fill="#ffffff" d="M 0 0 L 187 0 L 187 187 L 0 187 Z M 0 0 " fill-opacity="1" fill-rule="nonzero"/><path fill="#ffffff" d="M 0 0 L 187 0 L 187 187 L 0 187 Z M 0 0 " fill-opacity="1" fill-rule="nonzero"/><g clip-path="url(#f274a6d5bf)"><g clip-path="url(#b101c9dfc6)"><g transform="matrix(1, 0, 0, 1, 5, 74)"><g clip-path="url(#284b47990a)"><g clip-path="url(#cd148ea3a6)"><g clip-path="url(#3e91878256)"><path fill="#004aad" d="M 0.300781 0.410156 L 170.746094 0.410156 L 170.746094 33.691406 L 0.300781 33.691406 Z M 0.300781 0.410156 " fill-opacity="1" fill-rule="nonzero"/></g></g></g></g></g></g><g clip-path="url(#42390e8911)"><g clip-path="url(#a1b66e7e26)"><g transform="matrix(1, 0, 0, 1, 21, 23)"><g clip-path="url(#f1a7392411)"><g clip-path="url(#3f1866ec17)"><g clip-path="url(#7ea7109817)"><path fill="#004aad" d="M 0.730469 0.65625 L 134.90625 0.65625 L 134.90625 134.835938 L 0.730469 134.835938 Z M 0.730469 0.65625 " fill-opacity="1" fill-rule="nonzero"/></g></g></g></g></g></g><g clip-path="url(#f0cc91ff7b)"><g clip-path="url(#cec4d3d397)"><g transform="matrix(1, 0, 0, 1, 27, 29)"><g clip-path="url(#67dbd39a0e)"><g clip-path="url(#cd3ea971fc)"><g clip-path="url(#838831bdd5)"><path fill="#ffffff" d="M 0.789062 0.714844 L 122.847656 0.714844 L 122.847656 122.777344 L 0.789062 122.777344 Z M 0.789062 0.714844 " fill-opacity="1" fill-rule="nonzero"/></g></g></g></g></g></g><g clip-path="url(#18ba68dafa)"><g clip-path="url(#9021c0f376)"><g transform="matrix(1, 0, 0, 1, 32, 33)"><g clip-path="url(#a14d4129f2)"><g clip-path="url(#069f9c95a2)"><g clip-path="url(#3f18e42f77)"><path fill="#004aad" d="M 0.0585938 0.984375 L 113.582031 0.984375 L 113.582031 114.507812 L 0.0585938 114.507812 Z M 0.0585938 0.984375 " fill-opacity="1" fill-rule="nonzero"/></g></g></g></g></g></g><g clip-path="url(#2d051b0071)"><g clip-path="url(#b5381a5755)"><g transform="matrix(1, 0, 0, 1, 40, 41)"><g clip-path="url(#89a0e61954)"><g clip-path="url(#fc4cb66f81)"><g clip-path="url(#02460def9e)"><path fill="#ffffff" d="M 0.0429688 0.972656 L 97.59375 0.972656 L 97.59375 98.519531 L 0.0429688 98.519531 Z M 0.0429688 0.972656 " fill-opacity="1" fill-rule="nonzero"/></g></g></g></g></g></g><g clip-path="url(#79870a9e07)"><g transform="matrix(1, 0, 0, 1, 36, 76)"><g clip-path="url(#7183aa8afc)"><g clip-path="url(#137ab8bc7e)"><path fill="#004aad" d="M 0.464844 0.28125 L 103.988281 0.28125 L 103.988281 29.214844 L 0.464844 29.214844 Z M 0.464844 0.28125 " fill-opacity="1" fill-rule="nonzero"/></g></g></g></g><g fill="#ffffff" fill-opacity="1"><g transform="translate(53.752728, 95.538226)"><g><path d="M 3.546875 -3.1875 C 3.585938 -2.914062 3.671875 -2.710938 3.796875 -2.578125 C 3.921875 -2.441406 4.097656 -2.375 4.328125 -2.375 C 4.671875 -2.375 4.894531 -2.546875 5 -2.890625 C 5.101562 -3.242188 5.15625 -3.804688 5.15625 -4.578125 C 4.988281 -4.316406 4.75 -4.109375 4.4375 -3.953125 C 4.125 -3.804688 3.765625 -3.734375 3.359375 -3.734375 C 2.472656 -3.734375 1.757812 -4.007812 1.21875 -4.5625 C 0.6875 -5.125 0.421875 -5.929688 0.421875 -6.984375 C 0.421875 -7.679688 0.566406 -8.285156 0.859375 -8.796875 C 1.148438 -9.316406 1.566406 -9.71875 2.109375 -10 C 2.660156 -10.28125 3.296875 -10.421875 4.015625 -10.421875 C 5.484375 -10.421875 6.503906 -9.988281 7.078125 -9.125 C 7.648438 -8.257812 7.9375 -7.023438 7.9375 -5.421875 C 7.9375 -3.585938 7.65625 -2.207031 7.09375 -1.28125 C 6.53125 -0.363281 5.582031 0.09375 4.25 0.09375 C 3.519531 0.09375 2.890625 -0.0546875 2.359375 -0.359375 C 1.828125 -0.671875 1.421875 -1.070312 1.140625 -1.5625 C 0.859375 -2.0625 0.695312 -2.601562 0.65625 -3.1875 Z M 4.125 -6.109375 C 4.375 -6.109375 4.570312 -6.175781 4.71875 -6.3125 C 4.875 -6.457031 4.953125 -6.65625 4.953125 -6.90625 C 4.953125 -7.1875 4.878906 -7.394531 4.734375 -7.53125 C 4.585938 -7.664062 4.382812 -7.734375 4.125 -7.734375 C 3.863281 -7.734375 3.660156 -7.664062 3.515625 -7.53125 C 3.378906 -7.394531 3.3125 -7.1875 3.3125 -6.90625 C 3.3125 -6.65625 3.382812 -6.457031 3.53125 -6.3125 C 3.675781 -6.175781 3.875 -6.109375 4.125 -6.109375 Z M 4.125 -6.109375 "/></g></g></g><g fill="#ffffff" fill-opacity="1"><g transform="translate(62.083851, 95.538226)"><g><path d="M 0.453125 -5.25 C 0.453125 -6.851562 0.789062 -8.113281 1.46875 -9.03125 C 2.15625 -9.957031 3.207031 -10.421875 4.625 -10.421875 C 6.039062 -10.421875 7.09375 -9.957031 7.78125 -9.03125 C 8.46875 -8.101562 8.8125 -6.84375 8.8125 -5.25 C 8.8125 -3.632812 8.46875 -2.363281 7.78125 -1.4375 C 7.09375 -0.519531 6.039062 -0.0625 4.625 -0.0625 C 3.207031 -0.0625 2.15625 -0.519531 1.46875 -1.4375 C 0.789062 -2.363281 0.453125 -3.632812 0.453125 -5.25 Z M 5.765625 -5.25 C 5.765625 -5.988281 5.6875 -6.546875 5.53125 -6.921875 C 5.382812 -7.304688 5.082031 -7.5 4.625 -7.5 C 4.164062 -7.5 3.859375 -7.304688 3.703125 -6.921875 C 3.554688 -6.546875 3.484375 -5.988281 3.484375 -5.25 C 3.484375 -4.488281 3.554688 -3.921875 3.703125 -3.546875 C 3.859375 -3.171875 4.164062 -2.984375 4.625 -2.984375 C 5.082031 -2.984375 5.382812 -3.171875 5.53125 -3.546875 C 5.6875 -3.921875 5.765625 -4.488281 5.765625 -5.25 Z M 5.765625 -5.25 "/></g></g></g><g fill="#ffffff" fill-opacity="1"><g transform="translate(71.32204, 95.538226)"><g><path d="M 0.453125 -5.25 C 0.453125 -6.851562 0.789062 -8.113281 1.46875 -9.03125 C 2.15625 -9.957031 3.207031 -10.421875 4.625 -10.421875 C 6.039062 -10.421875 7.09375 -9.957031 7.78125 -9.03125 C 8.46875 -8.101562 8.8125 -6.84375 8.8125 -5.25 C 8.8125 -3.632812 8.46875 -2.363281 7.78125 -1.4375 C 7.09375 -0.519531 6.039062 -0.0625 4.625 -0.0625 C 3.207031 -0.0625 2.15625 -0.519531 1.46875 -1.4375 C 0.789062 -2.363281 0.453125 -3.632812 0.453125 -5.25 Z M 5.765625 -5.25 C 5.765625 -5.988281 5.6875 -6.546875 5.53125 -6.921875 C 5.382812 -7.304688 5.082031 -7.5 4.625 -7.5 C 4.164062 -7.5 3.859375 -7.304688 3.703125 -6.921875 C 3.554688 -6.546875 3.484375 -5.988281 3.484375 -5.25 C 3.484375 -4.488281 3.554688 -3.921875 3.703125 -3.546875 C 3.859375 -3.171875 4.164062 -2.984375 4.625 -2.984375 C 5.082031 -2.984375 5.382812 -3.171875 5.53125 -3.546875 C 5.6875 -3.921875 5.765625 -4.488281 5.765625 -5.25 Z M 5.765625 -5.25 "/></g></g></g><g fill="#ffffff" fill-opacity="1"><g transform="translate(80.560229, 95.538226)"><g><path d="M 0.140625 -7.296875 L 0.140625 -10.203125 L 4.875 -10.203125 L 4.875 0 L 1.625 0 L 1.625 -7.296875 Z M 0.140625 -7.296875 "/></g></g></g><g fill="#ffffff" fill-opacity="1"><g transform="translate(86.128266, 95.538226)"><g/></g></g><g fill="#ffffff" fill-opacity="1"><g transform="translate(88.500617, 95.538226)"><g><path d="M 2.234375 0.109375 C 1.691406 0.109375 1.257812 -0.03125 0.9375 -0.3125 C 0.613281 -0.601562 0.453125 -0.96875 0.453125 -1.40625 C 0.453125 -1.851562 0.613281 -2.222656 0.9375 -2.515625 C 1.257812 -2.804688 1.691406 -2.953125 2.234375 -2.953125 C 2.765625 -2.953125 3.191406 -2.804688 3.515625 -2.515625 C 3.835938 -2.222656 4 -1.851562 4 -1.40625 C 4 -0.96875 3.835938 -0.601562 3.515625 -0.3125 C 3.191406 -0.03125 2.765625 0.109375 2.234375 0.109375 Z M 2.234375 -5.421875 C 1.691406 -5.421875 1.257812 -5.5625 0.9375 -5.84375 C 0.613281 -6.132812 0.453125 -6.5 0.453125 -6.9375 C 0.453125 -7.382812 0.613281 -7.753906 0.9375 -8.046875 C 1.257812 -8.335938 1.691406 -8.484375 2.234375 -8.484375 C 2.765625 -8.484375 3.191406 -8.335938 3.515625 -8.046875 C 3.835938 -7.753906 4 -7.382812 4 -6.9375 C 4 -6.5 3.835938 -6.132812 3.515625 -5.84375 C 3.191406 -5.5625 2.765625 -5.421875 2.234375 -5.421875 Z M 2.234375 -5.421875 "/></g></g></g><g fill="#ffffff" fill-opacity="1"><g transform="translate(92.95225, 95.538226)"><g/></g></g><g fill="#ffffff" fill-opacity="1"><g transform="translate(95.324601, 95.538226)"><g><path d="M 0.390625 -2.46875 C 1.640625 -3.394531 2.625 -4.238281 3.34375 -5 C 4.070312 -5.757812 4.4375 -6.46875 4.4375 -7.125 C 4.4375 -7.351562 4.382812 -7.523438 4.28125 -7.640625 C 4.1875 -7.765625 4.0625 -7.828125 3.90625 -7.828125 C 3.71875 -7.828125 3.570312 -7.726562 3.46875 -7.53125 C 3.363281 -7.34375 3.320312 -7.054688 3.34375 -6.671875 L 0.34375 -6.671875 C 0.375 -7.535156 0.5625 -8.242188 0.90625 -8.796875 C 1.257812 -9.359375 1.710938 -9.769531 2.265625 -10.03125 C 2.828125 -10.289062 3.441406 -10.421875 4.109375 -10.421875 C 5.304688 -10.421875 6.179688 -10.132812 6.734375 -9.5625 C 7.285156 -8.988281 7.5625 -8.257812 7.5625 -7.375 C 7.5625 -6.425781 7.257812 -5.539062 6.65625 -4.71875 C 6.0625 -3.894531 5.3125 -3.203125 4.40625 -2.640625 L 7.609375 -2.640625 L 7.609375 -0.140625 L 0.390625 -0.140625 Z M 0.390625 -2.46875 "/></g></g></g><g fill="#ffffff" fill-opacity="1"><g transform="translate(103.223113, 95.538226)"><g><path d="M 0.453125 -5.25 C 0.453125 -6.851562 0.789062 -8.113281 1.46875 -9.03125 C 2.15625 -9.957031 3.207031 -10.421875 4.625 -10.421875 C 6.039062 -10.421875 7.09375 -9.957031 7.78125 -9.03125 C 8.46875 -8.101562 8.8125 -6.84375 8.8125 -5.25 C 8.8125 -3.632812 8.46875 -2.363281 7.78125 -1.4375 C 7.09375 -0.519531 6.039062 -0.0625 4.625 -0.0625 C 3.207031 -0.0625 2.15625 -0.519531 1.46875 -1.4375 C 0.789062 -2.363281 0.453125 -3.632812 0.453125 -5.25 Z M 5.765625 -5.25 C 5.765625 -5.988281 5.6875 -6.546875 5.53125 -6.921875 C 5.382812 -7.304688 5.082031 -7.5 4.625 -7.5 C 4.164062 -7.5 3.859375 -7.304688 3.703125 -6.921875 C 3.554688 -6.546875 3.484375 -5.988281 3.484375 -5.25 C 3.484375 -4.488281 3.554688 -3.921875 3.703125 -3.546875 C 3.859375 -3.171875 4.164062 -2.984375 4.625 -2.984375 C 5.082031 -2.984375 5.382812 -3.171875 5.53125 -3.546875 C 5.6875 -3.921875 5.765625 -4.488281 5.765625 -5.25 Z M 5.765625 -5.25 "/></g></g></g><g fill="#ffffff" fill-opacity="1"><g transform="translate(112.461302, 95.538226)"><g><path d="M 0.140625 -7.296875 L 0.140625 -10.203125 L 4.875 -10.203125 L 4.875 0 L 1.625 0 L 1.625 -7.296875 Z M 0.140625 -7.296875 "/></g></g></g><g fill="#ffffff" fill-opacity="1"><g transform="translate(118.029339, 95.538226)"><g><path d="M 8.15625 -7.484375 L 4.109375 -7.484375 L 4.109375 -6.3125 C 4.285156 -6.46875 4.515625 -6.59375 4.796875 -6.6875 C 5.078125 -6.78125 5.394531 -6.828125 5.75 -6.828125 C 6.382812 -6.828125 6.921875 -6.675781 7.359375 -6.375 C 7.796875 -6.082031 8.117188 -5.6875 8.328125 -5.1875 C 8.546875 -4.6875 8.65625 -4.132812 8.65625 -3.53125 C 8.65625 -2.414062 8.335938 -1.546875 7.703125 -0.921875 C 7.078125 -0.304688 6.21875 0 5.125 0 C 4.320312 0 3.628906 -0.140625 3.046875 -0.421875 C 2.460938 -0.703125 2.019531 -1.085938 1.71875 -1.578125 C 1.414062 -2.066406 1.273438 -2.628906 1.296875 -3.265625 L 4.3125 -3.265625 C 4.3125 -3.117188 4.363281 -2.976562 4.46875 -2.84375 C 4.570312 -2.71875 4.738281 -2.65625 4.96875 -2.65625 C 5.195312 -2.65625 5.367188 -2.738281 5.484375 -2.90625 C 5.597656 -3.070312 5.65625 -3.300781 5.65625 -3.59375 C 5.65625 -3.851562 5.59375 -4.050781 5.46875 -4.1875 C 5.34375 -4.332031 5.160156 -4.40625 4.921875 -4.40625 C 4.722656 -4.40625 4.570312 -4.359375 4.46875 -4.265625 C 4.375 -4.171875 4.328125 -4.066406 4.328125 -3.953125 L 1.3125 -3.953125 L 1.3125 -10.203125 L 8.15625 -10.203125 Z M 8.15625 -7.484375 "/></g></g></g><g clip-path="url(#02fbaaba4f)"><g clip-path="url(#973e973d1a)"><g transform="matrix(1, 0, 0, 1, 38, 85)"><g clip-path="url(#27d11f0121)"><g clip-path="url(#61088e3a1b)"><g clip-path="url(#696d45ae0e)"><path fill="#ffffff" d="M 0.0664062 0.429688 L 9.667969 0.429688 L 9.667969 9.566406 L 0.0664062 9.566406 Z M 0.0664062 0.429688 " fill-opacity="1" fill-rule="nonzero"/></g></g></g></g></g></g><g clip-path="url(#cea2e29099)"><g clip-path="url(#cfef19df8c)"><g transform="matrix(1, 0, 0, 1, 132, 85)"><g clip-path="url(#6a4a72ec7e)"><g clip-path="url(#c2d1812b2e)"><g clip-path="url(#cf769b2e25)"><path fill="#ffffff" d="M 0.09375 0.429688 L 9.695312 0.429688 L 9.695312 9.566406 L 0.09375 9.566406 Z M 0.09375 0.429688 " fill-opacity="1" fill-rule="nonzero"/></g></g></g></g></g></g><g clip-path="url(#382d5b9a27)"><path fill="#000000" d="M 85.265625 129.21875 C 86.769531 130.589844 87.746094 131.824219 89.355469 134.683594 C 92.859375 125.839844 97.660156 123.566406 97.050781 123.175781 C 95.820312 122.351562 89.832031 129.273438 89.105469 130.1875 C 88.234375 129.726562 85.265625 128.113281 85.265625 129.21875 Z M 85.265625 129.21875 " fill-opacity="1" fill-rule="evenodd"/></g><g clip-path="url(#fa0637f878)"><path stroke-linecap="round" transform="matrix(0.357932, 0, 0, 0.357932, 81.507274, 117.663103)" fill="none" stroke-linejoin="round" d="M 10.500176 32.284456 C 14.701827 36.115053 17.430172 39.563681 21.926484 47.552275 C 31.715786 22.844383 45.128329 16.492796 43.425842 15.401458 C 39.988127 13.098735 23.257916 32.437244 21.228028 34.990975 C 18.794344 33.703196 10.500176 29.19597 10.500176 32.284456 Z M 10.500176 32.284456 " stroke="#333333" stroke-width="1.875" stroke-opacity="1" stroke-miterlimit="4"/></g><g fill="#000000" fill-opacity="1"><g transform="translate(74.749711, 70.668691)"><g><path d="M 0.296875 0 C 0.460938 -0.144531 0.59375 -0.398438 0.6875 -0.765625 C 0.78125 -1.128906 0.828125 -1.5 0.828125 -1.875 L 0.828125 -12.5625 C 0.828125 -12.9375 0.78125 -13.300781 0.6875 -13.65625 C 0.59375 -14.019531 0.460938 -14.28125 0.296875 -14.4375 L 4.703125 -14.4375 C 4.535156 -14.28125 4.40625 -14.023438 4.3125 -13.671875 C 4.226562 -13.316406 4.1875 -12.953125 4.1875 -12.578125 L 4.1875 -1.859375 C 4.1875 -1.484375 4.226562 -1.113281 4.3125 -0.75 C 4.40625 -0.394531 4.535156 -0.144531 4.703125 0 Z M 0.296875 0 "/></g></g></g><g fill="#000000" fill-opacity="1"><g transform="translate(79.757463, 70.668691)"><g><path d="M 0.296875 -2.453125 C 0.617188 -2.835938 0.925781 -3.242188 1.21875 -3.671875 C 1.519531 -4.109375 1.78125 -4.546875 2 -4.984375 C 2.257812 -4.566406 2.582031 -4.179688 2.96875 -3.828125 C 3.351562 -3.484375 3.773438 -3.207031 4.234375 -3 C 4.703125 -2.800781 5.191406 -2.703125 5.703125 -2.703125 C 6.066406 -2.703125 6.410156 -2.75 6.734375 -2.84375 C 7.054688 -2.9375 7.316406 -3.085938 7.515625 -3.296875 C 7.722656 -3.515625 7.828125 -3.789062 7.828125 -4.125 C 7.828125 -4.4375 7.695312 -4.691406 7.4375 -4.890625 C 7.175781 -5.085938 6.828125 -5.253906 6.390625 -5.390625 C 5.960938 -5.535156 5.492188 -5.675781 4.984375 -5.8125 C 4.472656 -5.957031 3.957031 -6.128906 3.4375 -6.328125 C 2.914062 -6.523438 2.441406 -6.78125 2.015625 -7.09375 C 1.585938 -7.414062 1.238281 -7.828125 0.96875 -8.328125 C 0.707031 -8.828125 0.578125 -9.441406 0.578125 -10.171875 C 0.578125 -10.878906 0.742188 -11.507812 1.078125 -12.0625 C 1.410156 -12.613281 1.859375 -13.082031 2.421875 -13.46875 C 2.992188 -13.863281 3.628906 -14.160156 4.328125 -14.359375 C 5.023438 -14.554688 5.738281 -14.65625 6.46875 -14.65625 C 7.425781 -14.65625 8.234375 -14.550781 8.890625 -14.34375 C 9.546875 -14.144531 10.085938 -13.898438 10.515625 -13.609375 C 10.953125 -13.316406 11.320312 -13.039062 11.625 -12.78125 C 11.375 -12.394531 11.09375 -11.984375 10.78125 -11.546875 C 10.476562 -11.117188 10.195312 -10.65625 9.9375 -10.15625 C 9.507812 -10.539062 9.003906 -10.878906 8.421875 -11.171875 C 7.847656 -11.472656 7.222656 -11.625 6.546875 -11.625 C 6.234375 -11.625 5.910156 -11.578125 5.578125 -11.484375 C 5.242188 -11.390625 4.960938 -11.242188 4.734375 -11.046875 C 4.515625 -10.847656 4.40625 -10.585938 4.40625 -10.265625 C 4.40625 -9.921875 4.53125 -9.644531 4.78125 -9.4375 C 5.039062 -9.238281 5.378906 -9.070312 5.796875 -8.9375 C 6.222656 -8.8125 6.691406 -8.679688 7.203125 -8.546875 C 7.710938 -8.421875 8.21875 -8.269531 8.71875 -8.09375 C 9.226562 -7.914062 9.691406 -7.675781 10.109375 -7.375 C 10.535156 -7.070312 10.875 -6.679688 11.125 -6.203125 C 11.382812 -5.734375 11.515625 -5.132812 11.515625 -4.40625 C 11.515625 -3.4375 11.253906 -2.601562 10.734375 -1.90625 C 10.210938 -1.21875 9.503906 -0.691406 8.609375 -0.328125 C 7.722656 0.0351562 6.722656 0.21875 5.609375 0.21875 C 4.984375 0.21875 4.375 0.144531 3.78125 0 C 3.1875 -0.15625 2.644531 -0.363281 2.15625 -0.625 C 1.664062 -0.882812 1.257812 -1.171875 0.9375 -1.484375 C 0.613281 -1.804688 0.398438 -2.128906 0.296875 -2.453125 Z M 0.296875 -2.453125 "/></g></g></g><g fill="#000000" fill-opacity="1"><g transform="translate(91.671412, 70.668691)"><g><path d="M 0.515625 -7.203125 C 0.515625 -8.234375 0.644531 -9.195312 0.90625 -10.09375 C 1.175781 -11 1.582031 -11.789062 2.125 -12.46875 C 2.675781 -13.15625 3.378906 -13.691406 4.234375 -14.078125 C 5.085938 -14.460938 6.101562 -14.65625 7.28125 -14.65625 C 8.46875 -14.65625 9.488281 -14.460938 10.34375 -14.078125 C 11.195312 -13.691406 11.894531 -13.15625 12.4375 -12.46875 C 12.976562 -11.789062 13.378906 -11 13.640625 -10.09375 C 13.910156 -9.195312 14.046875 -8.234375 14.046875 -7.203125 C 14.046875 -6.179688 13.910156 -5.21875 13.640625 -4.3125 C 13.378906 -3.414062 12.976562 -2.625 12.4375 -1.9375 C 11.894531 -1.257812 11.195312 -0.726562 10.34375 -0.34375 C 9.488281 0.03125 8.46875 0.21875 7.28125 0.21875 C 6.101562 0.21875 5.085938 0.03125 4.234375 -0.34375 C 3.378906 -0.726562 2.675781 -1.257812 2.125 -1.9375 C 1.582031 -2.625 1.175781 -3.414062 0.90625 -4.3125 C 0.644531 -5.21875 0.515625 -6.179688 0.515625 -7.203125 Z M 3.890625 -7.21875 C 3.890625 -6.394531 4.003906 -5.632812 4.234375 -4.9375 C 4.472656 -4.25 4.835938 -3.695312 5.328125 -3.28125 C 5.828125 -2.875 6.472656 -2.671875 7.265625 -2.671875 C 8.066406 -2.671875 8.71875 -2.875 9.21875 -3.28125 C 9.71875 -3.695312 10.082031 -4.25 10.3125 -4.9375 C 10.550781 -5.632812 10.671875 -6.394531 10.671875 -7.21875 C 10.671875 -8.0625 10.550781 -8.828125 10.3125 -9.515625 C 10.082031 -10.203125 9.71875 -10.75 9.21875 -11.15625 C 8.71875 -11.5625 8.066406 -11.765625 7.265625 -11.765625 C 6.472656 -11.765625 5.828125 -11.5625 5.328125 -11.15625 C 4.835938 -10.75 4.472656 -10.203125 4.234375 -9.515625 C 4.003906 -8.828125 3.890625 -8.0625 3.890625 -7.21875 Z M 3.890625 -7.21875 "/></g></g></g><g fill="#000000" fill-opacity="1"><g transform="translate(64.143231, 117.132628)"><g><path d="M 0.3125 -3.65625 C 0.3125 -4.382812 0.457031 -5.03125 0.75 -5.59375 C 1.039062 -6.15625 1.457031 -6.59375 2 -6.90625 C 2.539062 -7.21875 3.179688 -7.375 3.921875 -7.375 C 4.554688 -7.375 5.117188 -7.253906 5.609375 -7.015625 C 6.109375 -6.773438 6.515625 -6.4375 6.828125 -6 C 7.140625 -5.570312 7.347656 -5.070312 7.453125 -4.5 L 5.046875 -4.5 C 4.929688 -4.738281 4.769531 -4.925781 4.5625 -5.0625 C 4.363281 -5.195312 4.132812 -5.265625 3.875 -5.265625 C 3.488281 -5.265625 3.179688 -5.117188 2.953125 -4.828125 C 2.734375 -4.535156 2.625 -4.144531 2.625 -3.65625 C 2.625 -3.164062 2.734375 -2.773438 2.953125 -2.484375 C 3.179688 -2.203125 3.488281 -2.0625 3.875 -2.0625 C 4.132812 -2.0625 4.363281 -2.128906 4.5625 -2.265625 C 4.769531 -2.398438 4.929688 -2.585938 5.046875 -2.828125 L 7.453125 -2.828125 C 7.347656 -2.242188 7.140625 -1.734375 6.828125 -1.296875 C 6.515625 -0.867188 6.109375 -0.535156 5.609375 -0.296875 C 5.117188 -0.0664062 4.554688 0.046875 3.921875 0.046875 C 3.179688 0.046875 2.539062 -0.109375 2 -0.421875 C 1.457031 -0.734375 1.039062 -1.171875 0.75 -1.734375 C 0.457031 -2.296875 0.3125 -2.9375 0.3125 -3.65625 Z M 0.3125 -3.65625 "/></g></g></g><g fill="#000000" fill-opacity="1"><g transform="translate(71.896663, 117.132628)"><g><path d="M 2.8125 -5.46875 L 2.8125 -4.578125 L 5.078125 -4.578125 L 5.078125 -2.859375 L 2.8125 -2.859375 L 2.8125 -1.828125 L 5.390625 -1.828125 L 5.390625 0 L 0.515625 0 L 0.515625 -7.296875 L 5.390625 -7.296875 L 5.390625 -5.46875 Z M 2.8125 -5.46875 "/></g></g></g><g fill="#000000" fill-opacity="1"><g transform="translate(77.621638, 117.132628)"><g><path d="M 4.1875 0 L 2.8125 -2.625 L 2.8125 0 L 0.515625 0 L 0.515625 -7.296875 L 3.921875 -7.296875 C 4.515625 -7.296875 5.019531 -7.191406 5.4375 -6.984375 C 5.851562 -6.773438 6.164062 -6.488281 6.375 -6.125 C 6.582031 -5.769531 6.6875 -5.363281 6.6875 -4.90625 C 6.6875 -4.414062 6.550781 -3.984375 6.28125 -3.609375 C 6.007812 -3.234375 5.617188 -2.960938 5.109375 -2.796875 L 6.703125 0 Z M 2.8125 -4.140625 L 3.71875 -4.140625 C 3.9375 -4.140625 4.097656 -4.1875 4.203125 -4.28125 C 4.316406 -4.382812 4.375 -4.546875 4.375 -4.765625 C 4.375 -4.953125 4.316406 -5.101562 4.203125 -5.21875 C 4.085938 -5.332031 3.925781 -5.390625 3.71875 -5.390625 L 2.8125 -5.390625 Z M 2.8125 -4.140625 "/></g></g></g><g fill="#000000" fill-opacity="1"><g transform="translate(84.520439, 117.132628)"><g><path d="M 6.25 -7.296875 L 6.25 -5.484375 L 4.3125 -5.484375 L 4.3125 0 L 2.015625 0 L 2.015625 -5.484375 L 0.109375 -5.484375 L 0.109375 -7.296875 Z M 6.25 -7.296875 "/></g></g></g><g fill="#000000" fill-opacity="1"><g transform="translate(90.863223, 117.132628)"><g><path d="M 2.8125 -7.296875 L 2.8125 0 L 0.515625 0 L 0.515625 -7.296875 Z M 2.8125 -7.296875 "/></g></g></g><g fill="#000000" fill-opacity="1"><g transform="translate(94.178765, 117.132628)"><g><path d="M 5.671875 -7.296875 L 5.671875 -5.484375 L 2.8125 -5.484375 L 2.8125 -4.46875 L 4.875 -4.46875 L 4.875 -2.75 L 2.8125 -2.75 L 2.8125 0 L 0.515625 0 L 0.515625 -7.296875 Z M 5.671875 -7.296875 "/></g></g></g><g fill="#000000" fill-opacity="1"><g transform="translate(100.099381, 117.132628)"><g><path d="M 2.8125 -7.296875 L 2.8125 0 L 0.515625 0 L 0.515625 -7.296875 Z M 2.8125 -7.296875 "/></g></g></g><g fill="#000000" fill-opacity="1"><g transform="translate(103.414922, 117.132628)"><g><path d="M 2.8125 -5.46875 L 2.8125 -4.578125 L 5.078125 -4.578125 L 5.078125 -2.859375 L 2.8125 -2.859375 L 2.8125 -1.828125 L 5.390625 -1.828125 L 5.390625 0 L 0.515625 0 L 0.515625 -7.296875 L 5.390625 -7.296875 L 5.390625 -5.46875 Z M 2.8125 -5.46875 "/></g></g></g><g fill="#000000" fill-opacity="1"><g transform="translate(109.139897, 117.132628)"><g><path d="M 3.5625 -7.296875 C 4.320312 -7.296875 4.988281 -7.140625 5.5625 -6.828125 C 6.132812 -6.523438 6.578125 -6.097656 6.890625 -5.546875 C 7.203125 -4.992188 7.359375 -4.367188 7.359375 -3.671875 C 7.359375 -2.972656 7.203125 -2.34375 6.890625 -1.78125 C 6.578125 -1.226562 6.132812 -0.789062 5.5625 -0.46875 C 4.988281 -0.15625 4.320312 0 3.5625 0 L 0.515625 0 L 0.515625 -7.296875 Z M 3.359375 -2.046875 C 3.867188 -2.046875 4.273438 -2.1875 4.578125 -2.46875 C 4.878906 -2.75 5.03125 -3.148438 5.03125 -3.671875 C 5.03125 -4.191406 4.878906 -4.59375 4.578125 -4.875 C 4.273438 -5.15625 3.867188 -5.296875 3.359375 -5.296875 L 2.8125 -5.296875 L 2.8125 -2.046875 Z M 3.359375 -2.046875 "/></g></g></g><g transform="matrix(1, 0, 0, 1, 43, 42)"><g clip-path="url(#15390559fe)"><g fill="#000000" fill-opacity="1"><g transform="translate(5.937393, 30.222589)"><g><path d="M -2.21875 -3.40625 C -1.96875 -3.863281 -1.613281 -4.140625 -1.15625 -4.234375 C -0.707031 -4.335938 -0.25 -4.257812 0.21875 -4 C 0.425781 -3.882812 0.609375 -3.742188 0.765625 -3.578125 C 0.929688 -3.410156 1.050781 -3.234375 1.125 -3.046875 L 1.640625 -3.21875 L 1.796875 -2.71875 L 1.25 -2.53125 C 1.257812 -2.226562 1.179688 -1.925781 1.015625 -1.625 C 0.765625 -1.175781 0.410156 -0.894531 -0.046875 -0.78125 C -0.503906 -0.675781 -0.96875 -0.753906 -1.4375 -1.015625 C -1.90625 -1.273438 -2.210938 -1.625 -2.359375 -2.0625 C -2.515625 -2.507812 -2.46875 -2.957031 -2.21875 -3.40625 Z M -0.046875 -2.6875 L 0.484375 -2.859375 C 0.328125 -3.054688 0.125 -3.226562 -0.125 -3.375 C -0.457031 -3.550781 -0.757812 -3.613281 -1.03125 -3.5625 C -1.3125 -3.519531 -1.523438 -3.367188 -1.671875 -3.109375 C -1.816406 -2.847656 -1.832031 -2.585938 -1.71875 -2.328125 C -1.613281 -2.066406 -1.398438 -1.847656 -1.078125 -1.671875 C -0.753906 -1.492188 -0.445312 -1.421875 -0.15625 -1.453125 C 0.125 -1.492188 0.335938 -1.644531 0.484375 -1.90625 C 0.566406 -2.050781 0.601562 -2.191406 0.59375 -2.328125 L 0.125 -2.171875 Z M -0.046875 -2.6875 "/></g></g></g><g fill="#000000" fill-opacity="1"><g transform="translate(8.159052, 26.286359)"><g><path d="M 1.28125 -1.71875 C 1.238281 -1.613281 1.175781 -1.503906 1.09375 -1.390625 C 1.019531 -1.285156 0.9375 -1.1875 0.84375 -1.09375 C 0.757812 -1 0.65625 -0.921875 0.53125 -0.859375 C 0.414062 -0.796875 0.296875 -0.75 0.171875 -0.71875 C 0.046875 -0.695312 -0.09375 -0.703125 -0.25 -0.734375 C -0.414062 -0.765625 -0.578125 -0.832031 -0.734375 -0.9375 L -2.703125 -2.296875 L -2.28125 -2.90625 L -0.3125 -1.546875 C 0.0390625 -1.304688 0.34375 -1.367188 0.59375 -1.734375 C 0.851562 -2.097656 0.804688 -2.398438 0.453125 -2.640625 L -1.515625 -4 L -1.109375 -4.609375 L 0.859375 -3.25 C 1.015625 -3.144531 1.140625 -3.023438 1.234375 -2.890625 C 1.328125 -2.765625 1.382812 -2.632812 1.40625 -2.5 C 1.425781 -2.375 1.421875 -2.238281 1.390625 -2.09375 C 1.367188 -1.957031 1.332031 -1.832031 1.28125 -1.71875 Z M 1.28125 -1.71875 "/></g></g></g><g fill="#000000" fill-opacity="1"><g transform="translate(10.603659, 22.806984)"><g><path d="M 1.015625 -2.3125 L 0.171875 -1.3125 L 0.5625 -0.671875 L 0.078125 -0.09375 L -1.8125 -3.328125 L -1.296875 -3.953125 L 2.203125 -2.609375 L 1.71875 -2.046875 Z M 0.4375 -2.546875 L -0.921875 -3.09375 L -0.15625 -1.84375 Z M 0.4375 -2.546875 "/></g></g></g><g fill="#000000" fill-opacity="1"><g transform="translate(13.386842, 19.579865)"><g><path d="M -1.6875 -3.296875 L 0.375 -1.21875 L 1.578125 -2.421875 L 2 -1.984375 L 0.28125 -0.28125 L -2.203125 -2.796875 Z M -1.6875 -3.296875 "/></g></g></g><g fill="#000000" fill-opacity="1"><g transform="translate(16.0992, 16.976759)"><g><path d="M -1.53125 -3.34375 L 0.78125 -0.671875 L 0.21875 -0.1875 L -2.09375 -2.859375 Z M -1.53125 -3.34375 "/></g></g></g><g fill="#000000" fill-opacity="1"><g transform="translate(17.720297, 15.575606)"><g><path d="M -0.265625 -3.46875 L 1.5 -1.125 L 0.90625 -0.6875 L -0.859375 -3.03125 L -1.71875 -2.375 L -2.078125 -2.859375 L 0.203125 -4.578125 L 0.5625 -4.09375 Z M -0.265625 -3.46875 "/></g></g></g><g fill="#000000" fill-opacity="1"><g transform="translate(20.715206, 13.356411)"><g><path d="M 1.03125 -2.1875 L 1.71875 -1.078125 L 1.09375 -0.6875 L 0.40625 -1.796875 L -1.765625 -3.0625 L -1.078125 -3.5 L 0.375 -2.5625 L 0.109375 -4.234375 L 0.796875 -4.671875 Z M 1.03125 -2.1875 "/></g></g></g><g fill="#000000" fill-opacity="1"><g transform="translate(24.16456, 11.279126)"><g/></g></g><g fill="#000000" fill-opacity="1"><g transform="translate(26.044041, 10.258036)"><g><path d="M -0.125 -2.953125 L 0.96875 -0.421875 L 0.28125 -0.125 L -1.125 -3.359375 L -0.109375 -3.796875 L 1.59375 -1.46875 L 1.046875 -4.296875 L 2.046875 -4.734375 L 3.453125 -1.5 L 2.78125 -1.203125 L 1.6875 -3.734375 L 2.203125 -0.953125 L 1.546875 -0.671875 Z M -0.125 -2.953125 "/></g></g></g><g fill="#000000" fill-opacity="1"><g transform="translate(30.454458, 8.409646)"><g><path d="M 2.09375 -1.421875 L 0.84375 -1.015625 L 0.828125 -0.265625 L 0.125 -0.03125 L 0.25 -3.78125 L 1.03125 -4.03125 L 3.25 -1.015625 L 2.546875 -0.796875 Z M 1.734375 -1.921875 L 0.875 -3.109375 L 0.859375 -1.640625 Z M 1.734375 -1.921875 "/></g></g></g><g fill="#000000" fill-opacity="1"><g transform="translate(34.521175, 7.166604)"><g><path d="M 2.4375 -0.515625 L 0.546875 -2.609375 L 1.046875 -0.21875 L 0.328125 -0.0625 L -0.40625 -3.515625 L 0.328125 -3.671875 L 2.203125 -1.609375 L 1.703125 -3.96875 L 2.40625 -4.109375 L 3.140625 -0.65625 Z M 2.4375 -0.515625 "/></g></g></g><g fill="#000000" fill-opacity="1"><g transform="translate(38.688897, 6.322361)"><g><path d="M 2.328125 -0.984375 L 1.03125 -0.84375 L 0.875 -0.09375 L 0.125 -0.015625 L 0.96875 -3.671875 L 1.78125 -3.765625 L 3.390625 -0.375 L 2.65625 -0.296875 Z M 2.078125 -1.546875 L 1.453125 -2.890625 L 1.15625 -1.4375 Z M 2.078125 -1.546875 "/></g></g></g><g fill="#000000" fill-opacity="1"><g transform="translate(42.91376, 5.87864)"><g><path d="M 2.734375 -2.4375 C 2.609375 -2.8125 2.328125 -2.992188 1.890625 -2.984375 C 1.578125 -2.984375 1.332031 -2.875 1.15625 -2.65625 C 0.988281 -2.445312 0.910156 -2.148438 0.921875 -1.765625 C 0.921875 -1.398438 1.015625 -1.097656 1.203125 -0.859375 C 1.398438 -0.628906 1.644531 -0.515625 1.9375 -0.515625 C 2 -0.523438 2.066406 -0.539062 2.140625 -0.5625 C 2.222656 -0.59375 2.3125 -0.632812 2.40625 -0.6875 C 2.507812 -0.738281 2.597656 -0.816406 2.671875 -0.921875 C 2.753906 -1.035156 2.804688 -1.171875 2.828125 -1.328125 L 2.015625 -1.328125 L 2.015625 -1.9375 L 3.4375 -1.953125 L 3.453125 -0.03125 L 3.015625 -0.015625 L 2.921875 -0.484375 C 2.785156 -0.285156 2.632812 -0.140625 2.46875 -0.046875 C 2.300781 0.0351562 2.097656 0.0820312 1.859375 0.09375 C 1.378906 0.09375 0.976562 -0.078125 0.65625 -0.421875 C 0.34375 -0.765625 0.1875 -1.207031 0.1875 -1.75 C 0.175781 -2.289062 0.328125 -2.734375 0.640625 -3.078125 C 0.953125 -3.429688 1.363281 -3.609375 1.875 -3.609375 C 2.289062 -3.617188 2.640625 -3.519531 2.921875 -3.3125 C 3.203125 -3.101562 3.367188 -2.816406 3.421875 -2.453125 Z M 2.734375 -2.4375 "/></g></g></g><g fill="#000000" fill-opacity="1"><g transform="translate(47.437856, 5.874038)"><g><path d="M 1.234375 -1.421875 L 1.15625 -0.515625 L 3.0625 -0.359375 L 3.015625 0.25 L 0.375 0.03125 L 0.671875 -3.484375 L 3.21875 -3.265625 L 3.171875 -2.671875 L 1.359375 -2.828125 L 1.296875 -2.03125 L 2.984375 -1.890625 L 2.921875 -1.28125 Z M 1.234375 -1.421875 "/></g></g></g><g fill="#000000" fill-opacity="1"><g transform="translate(51.403696, 6.228287)"><g><path d="M 1.53125 -2.53125 L 1.03125 0.1875 L 0.3125 0.0625 L 0.953125 -3.40625 L 2.015625 -3.203125 L 2.140625 -0.328125 L 3.265625 -2.984375 L 4.34375 -2.78125 L 3.703125 0.6875 L 2.984375 0.5625 L 3.484375 -2.15625 L 2.359375 0.4375 L 1.65625 0.3125 Z M 1.53125 -2.53125 "/></g></g></g><g fill="#000000" fill-opacity="1"><g transform="translate(56.098156, 7.162315)"><g><path d="M 1.484375 -1.140625 L 1.234375 -0.265625 L 3.078125 0.265625 L 2.90625 0.84375 L 0.359375 0.109375 L 1.34375 -3.28125 L 3.796875 -2.5625 L 3.640625 -1.984375 L 1.890625 -2.5 L 1.65625 -1.734375 L 3.296875 -1.265625 L 3.125 -0.671875 Z M 1.484375 -1.140625 "/></g></g></g><g fill="#000000" fill-opacity="1"><g transform="translate(59.919809, 8.309477)"><g><path d="M 2.3125 0.921875 L 1.890625 -1.875 L 0.984375 0.390625 L 0.3125 0.125 L 1.609375 -3.15625 L 2.296875 -2.890625 L 2.734375 -0.125 L 3.609375 -2.359375 L 4.28125 -2.09375 L 2.984375 1.1875 Z M 2.3125 0.921875 "/></g></g></g><g fill="#000000" fill-opacity="1"><g transform="translate(63.862848, 9.925159)"><g><path d="M 3 -1.78125 L 1.671875 0.84375 L 1.015625 0.515625 L 2.34375 -2.109375 L 1.390625 -2.59375 L 1.65625 -3.125 L 4.1875 -1.84375 L 3.921875 -1.3125 Z M 3 -1.78125 "/></g></g></g><g fill="#000000" fill-opacity="1"><g transform="translate(67.192396, 11.671619)"><g/></g></g><g fill="#000000" fill-opacity="1"><g transform="translate(69.04512, 12.766405)"><g><path d="M 3.8125 -0.328125 L 3.25 -0.71875 C 3.445312 -1.050781 3.351562 -1.351562 2.96875 -1.625 C 2.820312 -1.71875 2.675781 -1.765625 2.53125 -1.765625 C 2.394531 -1.765625 2.289062 -1.710938 2.21875 -1.609375 C 2.144531 -1.492188 2.125 -1.382812 2.15625 -1.28125 C 2.195312 -1.175781 2.3125 -1.023438 2.5 -0.828125 L 2.921875 -0.4375 C 3.140625 -0.195312 3.265625 0.0234375 3.296875 0.234375 C 3.335938 0.453125 3.28125 0.675781 3.125 0.90625 C 2.914062 1.207031 2.648438 1.363281 2.328125 1.375 C 2.003906 1.394531 1.648438 1.273438 1.265625 1.015625 C 0.890625 0.753906 0.65625 0.472656 0.5625 0.171875 C 0.476562 -0.128906 0.535156 -0.445312 0.734375 -0.78125 L 1.3125 -0.390625 C 1.113281 -0.046875 1.21875 0.265625 1.625 0.546875 C 1.800781 0.671875 1.96875 0.738281 2.125 0.75 C 2.28125 0.757812 2.40625 0.703125 2.5 0.578125 C 2.570312 0.460938 2.585938 0.34375 2.546875 0.21875 C 2.515625 0.101562 2.410156 -0.0390625 2.234375 -0.21875 L 1.890625 -0.59375 C 1.617188 -0.84375 1.460938 -1.070312 1.421875 -1.28125 C 1.390625 -1.488281 1.453125 -1.703125 1.609375 -1.921875 C 1.816406 -2.210938 2.066406 -2.367188 2.359375 -2.390625 C 2.648438 -2.410156 2.972656 -2.300781 3.328125 -2.0625 C 3.429688 -1.988281 3.523438 -1.914062 3.609375 -1.84375 C 3.691406 -1.769531 3.769531 -1.671875 3.84375 -1.546875 C 3.925781 -1.429688 3.984375 -1.3125 4.015625 -1.1875 C 4.046875 -1.070312 4.046875 -0.9375 4.015625 -0.78125 C 3.992188 -0.632812 3.925781 -0.484375 3.8125 -0.328125 Z M 3.8125 -0.328125 "/></g></g></g><g fill="#000000" fill-opacity="1"><g transform="translate(72.307702, 15.071369)"><g><path d="M 2.40625 0.296875 L 1.5625 1.296875 L 1 0.828125 L 1.84375 -0.171875 L 2.359375 -2.625 L 2.984375 -2.09375 L 2.546875 -0.4375 L 4.0625 -1.203125 L 4.6875 -0.671875 Z M 2.40625 0.296875 "/></g></g></g><g fill="#000000" fill-opacity="1"><g transform="translate(75.347886, 17.662562)"><g><path d="M 3.8125 0.359375 L 3.328125 -0.125 C 3.578125 -0.40625 3.535156 -0.710938 3.203125 -1.046875 C 3.078125 -1.171875 2.945312 -1.25 2.8125 -1.28125 C 2.675781 -1.3125 2.5625 -1.273438 2.46875 -1.171875 C 2.375 -1.078125 2.335938 -0.972656 2.359375 -0.859375 C 2.378906 -0.753906 2.460938 -0.585938 2.609375 -0.359375 L 2.9375 0.09375 C 3.113281 0.363281 3.203125 0.609375 3.203125 0.828125 C 3.203125 1.046875 3.101562 1.253906 2.90625 1.453125 C 2.644531 1.710938 2.351562 1.820312 2.03125 1.78125 C 1.707031 1.738281 1.382812 1.554688 1.0625 1.234375 C 0.738281 0.910156 0.554688 0.585938 0.515625 0.265625 C 0.484375 -0.046875 0.597656 -0.347656 0.859375 -0.640625 L 1.359375 -0.140625 C 1.097656 0.160156 1.144531 0.488281 1.5 0.84375 C 1.65625 1 1.804688 1.09375 1.953125 1.125 C 2.109375 1.164062 2.238281 1.128906 2.34375 1.015625 C 2.4375 0.921875 2.476562 0.804688 2.46875 0.671875 C 2.457031 0.546875 2.378906 0.378906 2.234375 0.171875 L 1.96875 -0.25 C 1.75 -0.550781 1.640625 -0.800781 1.640625 -1 C 1.640625 -1.207031 1.734375 -1.410156 1.921875 -1.609375 C 2.179688 -1.859375 2.457031 -1.960938 2.75 -1.921875 C 3.050781 -1.890625 3.351562 -1.722656 3.65625 -1.421875 C 3.738281 -1.335938 3.8125 -1.25 3.875 -1.15625 C 3.945312 -1.0625 4.007812 -0.953125 4.0625 -0.828125 C 4.113281 -0.703125 4.144531 -0.570312 4.15625 -0.4375 C 4.175781 -0.3125 4.15625 -0.175781 4.09375 -0.03125 C 4.039062 0.101562 3.945312 0.234375 3.8125 0.359375 Z M 3.8125 0.359375 "/></g></g></g><g fill="#000000" fill-opacity="1"><g transform="translate(78.139736, 20.525947)"><g><path d="M 3.453125 -0.4375 L 1.203125 1.4375 L 0.734375 0.875 L 2.984375 -1 L 2.296875 -1.828125 L 2.765625 -2.21875 L 4.578125 -0.03125 L 4.109375 0.359375 Z M 3.453125 -0.4375 "/></g></g></g><g fill="#000000" fill-opacity="1"><g transform="translate(80.504474, 23.406792)"><g><path d="M 1.875 0.046875 L 1.125 0.5625 L 2.234375 2.140625 L 1.734375 2.484375 L 0.21875 0.3125 L 3.125 -1.703125 L 4.578125 0.390625 L 4.078125 0.734375 L 3.03125 -0.765625 L 2.375 -0.3125 L 3.359375 1.09375 L 2.859375 1.453125 Z M 1.875 0.046875 "/></g></g></g><g fill="#000000" fill-opacity="1"><g transform="translate(82.76064, 26.687697)"><g><path d="M 2.9375 -0.421875 L 0.515625 0.921875 L 0.15625 0.265625 L 3.25 -1.453125 L 3.78125 -0.484375 L 1.625 1.453125 L 4.390625 0.609375 L 4.921875 1.578125 L 1.828125 3.296875 L 1.46875 2.65625 L 3.890625 1.3125 L 1.171875 2.109375 L 0.8125 1.46875 Z M 2.9375 -0.421875 "/></g></g></g></g></g></svg>