<svg xmlns="http://www.w3.org/2000/svg" xmlns:xlink="http://www.w3.org/1999/xlink" width="250" zoomAndPan="magnify" viewBox="0 0 187.5 187.499992" height="250" preserveAspectRatio="xMidYMid meet" version="1.0"><defs><g/><clipPath id="8b59c72e0c"><path d="M 5.300781 74.410156 L 175.746094 74.410156 L 175.746094 107.691406 L 5.300781 107.691406 Z M 5.300781 74.410156 " clip-rule="nonzero"/></clipPath><clipPath id="eb0e679b39"><path d="M 175.695312 74.410156 L 5.300781 74.410156 L 12.3125 91.050781 L 5.300781 107.691406 L 175.695312 107.691406 L 168.683594 91.050781 Z M 175.695312 74.410156 " clip-rule="nonzero"/></clipPath><clipPath id="23ee1310d1"><path d="M 0.300781 0.410156 L 170.746094 0.410156 L 170.746094 33.691406 L 0.300781 33.691406 Z M 0.300781 0.410156 " clip-rule="nonzero"/></clipPath><clipPath id="8168083f42"><path d="M 170.695312 0.410156 L 0.300781 0.410156 L 7.3125 17.050781 L 0.300781 33.691406 L 170.695312 33.691406 L 163.683594 17.050781 Z M 170.695312 0.410156 " clip-rule="nonzero"/></clipPath><clipPath id="36d3303b3f"><rect x="0" width="171" y="0" height="34"/></clipPath><clipPath id="0dd5d2edd7"><path d="M 21.730469 23.65625 L 155.90625 23.65625 L 155.90625 157.835938 L 21.730469 157.835938 Z M 21.730469 23.65625 " clip-rule="nonzero"/></clipPath><clipPath id="4f703f2637"><path d="M 88.820312 23.65625 C 51.765625 23.65625 21.730469 53.695312 21.730469 90.746094 C 21.730469 127.800781 51.765625 157.835938 88.820312 157.835938 C 125.871094 157.835938 155.90625 127.800781 155.90625 90.746094 C 155.90625 53.695312 125.871094 23.65625 88.820312 23.65625 Z M 88.820312 23.65625 " clip-rule="nonzero"/></clipPath><clipPath id="e5c69145f3"><path d="M 0.730469 0.65625 L 134.90625 0.65625 L 134.90625 134.835938 L 0.730469 134.835938 Z M 0.730469 0.65625 " clip-rule="nonzero"/></clipPath><clipPath id="ce37fc1079"><path d="M 67.820312 0.65625 C 30.765625 0.65625 0.730469 30.695312 0.730469 67.746094 C 0.730469 104.800781 30.765625 134.835938 67.820312 134.835938 C 104.871094 134.835938 134.90625 104.800781 134.90625 67.746094 C 134.90625 30.695312 104.871094 0.65625 67.820312 0.65625 Z M 67.820312 0.65625 " clip-rule="nonzero"/></clipPath><clipPath id="a73c1c2003"><rect x="0" width="135" y="0" height="135"/></clipPath><clipPath id="c68fd4b1ba"><path d="M 27.789062 29.714844 L 149.847656 29.714844 L 149.847656 151.777344 L 27.789062 151.777344 Z M 27.789062 29.714844 " clip-rule="nonzero"/></clipPath><clipPath id="a158f860d4"><path d="M 88.820312 29.714844 C 55.113281 29.714844 27.789062 57.039062 27.789062 90.746094 C 27.789062 124.453125 55.113281 151.777344 88.820312 151.777344 C 122.523438 151.777344 149.847656 124.453125 149.847656 90.746094 C 149.847656 57.039062 122.523438 29.714844 88.820312 29.714844 Z M 88.820312 29.714844 " clip-rule="nonzero"/></clipPath><clipPath id="9c74c2239f"><path d="M 0.789062 0.714844 L 122.847656 0.714844 L 122.847656 122.777344 L 0.789062 122.777344 Z M 0.789062 0.714844 " clip-rule="nonzero"/></clipPath><clipPath id="8fd6e71806"><path d="M 61.820312 0.714844 C 28.113281 0.714844 0.789062 28.039062 0.789062 61.746094 C 0.789062 95.453125 28.113281 122.777344 61.820312 122.777344 C 95.523438 122.777344 122.847656 95.453125 122.847656 61.746094 C 122.847656 28.039062 95.523438 0.714844 61.820312 0.714844 Z M 61.820312 0.714844 " clip-rule="nonzero"/></clipPath><clipPath id="7d57341e9e"><rect x="0" width="123" y="0" height="123"/></clipPath><clipPath id="716b804021"><path d="M 32.058594 33.984375 L 145.582031 33.984375 L 145.582031 147.507812 L 32.058594 147.507812 Z M 32.058594 33.984375 " clip-rule="nonzero"/></clipPath><clipPath id="a63021b1bb"><path d="M 88.820312 33.984375 C 57.46875 33.984375 32.058594 59.398438 32.058594 90.746094 C 32.058594 122.09375 57.46875 147.507812 88.820312 147.507812 C 120.167969 147.507812 145.582031 122.09375 145.582031 90.746094 C 145.582031 59.398438 120.167969 33.984375 88.820312 33.984375 Z M 88.820312 33.984375 " clip-rule="nonzero"/></clipPath><clipPath id="5c56b1a0fe"><path d="M 0.0585938 0.984375 L 113.582031 0.984375 L 113.582031 114.507812 L 0.0585938 114.507812 Z M 0.0585938 0.984375 " clip-rule="nonzero"/></clipPath><clipPath id="de8772cab0"><path d="M 56.820312 0.984375 C 25.46875 0.984375 0.0585938 26.398438 0.0585938 57.746094 C 0.0585938 89.09375 25.46875 114.507812 56.820312 114.507812 C 88.167969 114.507812 113.582031 89.09375 113.582031 57.746094 C 113.582031 26.398438 88.167969 0.984375 56.820312 0.984375 Z M 56.820312 0.984375 " clip-rule="nonzero"/></clipPath><clipPath id="4ce5141f43"><rect x="0" width="114" y="0" height="115"/></clipPath><clipPath id="f45ff58976"><path d="M 40.042969 41.972656 L 137.59375 41.972656 L 137.59375 139.519531 L 40.042969 139.519531 Z M 40.042969 41.972656 " clip-rule="nonzero"/></clipPath><clipPath id="c755da199d"><path d="M 88.820312 41.972656 C 61.882812 41.972656 40.042969 63.808594 40.042969 90.746094 C 40.042969 117.683594 61.882812 139.519531 88.820312 139.519531 C 115.757812 139.519531 137.59375 117.683594 137.59375 90.746094 C 137.59375 63.808594 115.757812 41.972656 88.820312 41.972656 Z M 88.820312 41.972656 " clip-rule="nonzero"/></clipPath><clipPath id="ff0fff6d72"><path d="M 0.0429688 0.972656 L 97.59375 0.972656 L 97.59375 98.519531 L 0.0429688 98.519531 Z M 0.0429688 0.972656 " clip-rule="nonzero"/></clipPath><clipPath id="cf9ca89323"><path d="M 48.820312 0.972656 C 21.882812 0.972656 0.0429688 22.808594 0.0429688 49.746094 C 0.0429688 76.683594 21.882812 98.519531 48.820312 98.519531 C 75.757812 98.519531 97.59375 76.683594 97.59375 49.746094 C 97.59375 22.808594 75.757812 0.972656 48.820312 0.972656 Z M 48.820312 0.972656 " clip-rule="nonzero"/></clipPath><clipPath id="ce2eae5483"><rect x="0" width="98" y="0" height="99"/></clipPath><clipPath id="7a208d4990"><path d="M 36.464844 76.28125 L 139.988281 76.28125 L 139.988281 105.214844 L 36.464844 105.214844 Z M 36.464844 76.28125 " clip-rule="nonzero"/></clipPath><clipPath id="e796e8615e"><path d="M 0.464844 0.28125 L 103.988281 0.28125 L 103.988281 29.214844 L 0.464844 29.214844 Z M 0.464844 0.28125 " clip-rule="nonzero"/></clipPath><clipPath id="50e391e2a3"><rect x="0" width="104" y="0" height="30"/></clipPath><clipPath id="aa41221b4d"><path d="M 40.042969 86.925781 L 49.644531 86.925781 L 49.644531 96.0625 L 40.042969 96.0625 Z M 40.042969 86.925781 " clip-rule="nonzero"/></clipPath><clipPath id="bc6d7f5c17"><path d="M 44.835938 86.925781 L 45.96875 90.417969 L 49.628906 90.417969 L 46.667969 92.574219 L 47.800781 96.0625 L 44.835938 93.90625 L 41.875 96.0625 L 43.007812 92.574219 L 40.042969 90.417969 L 43.707031 90.417969 Z M 44.835938 86.925781 " clip-rule="nonzero"/></clipPath><clipPath id="b00abee7af"><path d="M 0.0429688 0.925781 L 9.644531 0.925781 L 9.644531 10.0625 L 0.0429688 10.0625 Z M 0.0429688 0.925781 " clip-rule="nonzero"/></clipPath><clipPath id="9527d359e7"><path d="M 4.835938 0.925781 L 5.96875 4.417969 L 9.628906 4.417969 L 6.667969 6.574219 L 7.800781 10.0625 L 4.835938 7.90625 L 1.875 10.0625 L 3.007812 6.574219 L 0.0429688 4.417969 L 3.707031 4.417969 Z M 4.835938 0.925781 " clip-rule="nonzero"/></clipPath><clipPath id="c3526058a6"><rect x="0" width="10" y="0" height="11"/></clipPath><clipPath id="e79df2aad1"><path d="M 130.402344 86.179688 L 140 86.179688 L 140 95.316406 L 130.402344 95.316406 Z M 130.402344 86.179688 " clip-rule="nonzero"/></clipPath><clipPath id="6422ce3627"><path d="M 135.195312 86.179688 L 136.328125 89.667969 L 139.988281 89.667969 L 137.027344 91.824219 L 138.15625 95.316406 L 135.195312 93.15625 L 132.234375 95.316406 L 133.363281 91.824219 L 130.402344 89.667969 L 134.0625 89.667969 Z M 135.195312 86.179688 " clip-rule="nonzero"/></clipPath><clipPath id="7f03e6aad3"><path d="M 0.402344 0.179688 L 10 0.179688 L 10 9.316406 L 0.402344 9.316406 Z M 0.402344 0.179688 " clip-rule="nonzero"/></clipPath><clipPath id="119d26a839"><path d="M 5.195312 0.179688 L 6.328125 3.667969 L 9.988281 3.667969 L 7.027344 5.824219 L 8.15625 9.316406 L 5.195312 7.15625 L 2.234375 9.316406 L 3.363281 5.824219 L 0.402344 3.667969 L 4.0625 3.667969 Z M 5.195312 0.179688 " clip-rule="nonzero"/></clipPath><clipPath id="f2dff204a2"><rect x="0" width="10" y="0" height="10"/></clipPath><clipPath id="1ad3328611"><path d="M 85 123 L 97.601562 123 L 97.601562 135 L 85 135 Z M 85 123 " clip-rule="nonzero"/></clipPath><clipPath id="1bcb5a8415"><path d="M 84.886719 122 L 97.601562 122 L 97.601562 135.316406 L 84.886719 135.316406 Z M 84.886719 122 " clip-rule="nonzero"/></clipPath><clipPath id="f67a5018e8"><rect x="0" width="86" y="0" height="29"/></clipPath></defs><g clip-path="url(#8b59c72e0c)"><g clip-path="url(#eb0e679b39)"><g transform="matrix(1, 0, 0, 1, 5, 74)"><g clip-path="url(#36d3303b3f)"><g clip-path="url(#23ee1310d1)"><g clip-path="url(#8168083f42)"><path fill="#004aad" d="M 0.300781 0.410156 L 170.746094 0.410156 L 170.746094 33.691406 L 0.300781 33.691406 Z M 0.300781 0.410156 " fill-opacity="1" fill-rule="nonzero"/></g></g></g></g></g></g><g clip-path="url(#0dd5d2edd7)"><g clip-path="url(#4f703f2637)"><g transform="matrix(1, 0, 0, 1, 21, 23)"><g clip-path="url(#a73c1c2003)"><g clip-path="url(#e5c69145f3)"><g clip-path="url(#ce37fc1079)"><path fill="#004aad" d="M 0.730469 0.65625 L 134.90625 0.65625 L 134.90625 134.835938 L 0.730469 134.835938 Z M 0.730469 0.65625 " fill-opacity="1" fill-rule="nonzero"/></g></g></g></g></g></g><g clip-path="url(#c68fd4b1ba)"><g clip-path="url(#a158f860d4)"><g transform="matrix(1, 0, 0, 1, 27, 29)"><g clip-path="url(#7d57341e9e)"><g clip-path="url(#9c74c2239f)"><g clip-path="url(#8fd6e71806)"><path fill="#ffffff" d="M 0.789062 0.714844 L 122.847656 0.714844 L 122.847656 122.777344 L 0.789062 122.777344 Z M 0.789062 0.714844 " fill-opacity="1" fill-rule="nonzero"/></g></g></g></g></g></g><g clip-path="url(#716b804021)"><g clip-path="url(#a63021b1bb)"><g transform="matrix(1, 0, 0, 1, 32, 33)"><g clip-path="url(#4ce5141f43)"><g clip-path="url(#5c56b1a0fe)"><g clip-path="url(#de8772cab0)"><path fill="#004aad" d="M 0.0585938 0.984375 L 113.582031 0.984375 L 113.582031 114.507812 L 0.0585938 114.507812 Z M 0.0585938 0.984375 " fill-opacity="1" fill-rule="nonzero"/></g></g></g></g></g></g><g clip-path="url(#f45ff58976)"><g clip-path="url(#c755da199d)"><g transform="matrix(1, 0, 0, 1, 40, 41)"><g clip-path="url(#ce2eae5483)"><g clip-path="url(#ff0fff6d72)"><g clip-path="url(#cf9ca89323)"><path fill="#ffffff" d="M 0.0429688 0.972656 L 97.59375 0.972656 L 97.59375 98.519531 L 0.0429688 98.519531 Z M 0.0429688 0.972656 " fill-opacity="1" fill-rule="nonzero"/></g></g></g></g></g></g><g clip-path="url(#7a208d4990)"><g transform="matrix(1, 0, 0, 1, 36, 76)"><g clip-path="url(#50e391e2a3)"><g clip-path="url(#e796e8615e)"><path fill="#004aad" d="M 0.464844 0.28125 L 103.988281 0.28125 L 103.988281 29.214844 L 0.464844 29.214844 Z M 0.464844 0.28125 " fill-opacity="1" fill-rule="nonzero"/></g></g></g></g><g fill="#ffffff" fill-opacity="1"><g transform="translate(53.425475, 95.234619)"><g><path d="M 0.625 -1.3125 L 0.625 -3.53125 L 4.1875 -8.609375 L 7.046875 -8.609375 L 7.046875 -3.609375 L 7.90625 -3.609375 L 7.90625 -1.3125 L 7.046875 -1.3125 L 7.046875 0 L 4.359375 0 L 4.359375 -1.3125 Z M 4.578125 -5.578125 L 3.28125 -3.609375 L 4.578125 -3.609375 Z M 4.578125 -5.578125 "/></g></g></g><g fill="#ffffff" fill-opacity="1"><g transform="translate(61.842737, 95.234619)"><g><path d="M 6.984375 -6.40625 L 3.515625 -6.40625 L 3.515625 -5.40625 C 3.660156 -5.539062 3.851562 -5.644531 4.09375 -5.71875 C 4.34375 -5.800781 4.617188 -5.84375 4.921875 -5.84375 C 5.460938 -5.84375 5.921875 -5.710938 6.296875 -5.453125 C 6.671875 -5.203125 6.945312 -4.863281 7.125 -4.4375 C 7.3125 -4.007812 7.40625 -3.539062 7.40625 -3.03125 C 7.40625 -2.070312 7.132812 -1.328125 6.59375 -0.796875 C 6.0625 -0.265625 5.328125 0 4.390625 0 C 3.703125 0 3.109375 -0.117188 2.609375 -0.359375 C 2.109375 -0.597656 1.726562 -0.925781 1.46875 -1.34375 C 1.21875 -1.769531 1.097656 -2.253906 1.109375 -2.796875 L 3.6875 -2.796875 C 3.6875 -2.671875 3.726562 -2.550781 3.8125 -2.4375 C 3.90625 -2.320312 4.050781 -2.265625 4.25 -2.265625 C 4.445312 -2.265625 4.59375 -2.335938 4.6875 -2.484375 C 4.789062 -2.628906 4.84375 -2.828125 4.84375 -3.078125 C 4.84375 -3.304688 4.785156 -3.476562 4.671875 -3.59375 C 4.566406 -3.71875 4.414062 -3.78125 4.21875 -3.78125 C 4.050781 -3.78125 3.921875 -3.738281 3.828125 -3.65625 C 3.742188 -3.570312 3.703125 -3.476562 3.703125 -3.375 L 1.125 -3.375 L 1.125 -8.734375 L 6.984375 -8.734375 Z M 6.984375 -6.40625 "/></g></g></g><g fill="#ffffff" fill-opacity="1"><g transform="translate(69.733921, 95.234619)"><g><path d="M 0.375 -4.5 C 0.375 -5.875 0.664062 -6.953125 1.25 -7.734375 C 1.84375 -8.523438 2.75 -8.921875 3.96875 -8.921875 C 5.175781 -8.921875 6.070312 -8.523438 6.65625 -7.734375 C 7.25 -6.941406 7.546875 -5.863281 7.546875 -4.5 C 7.546875 -3.113281 7.25 -2.023438 6.65625 -1.234375 C 6.070312 -0.441406 5.175781 -0.046875 3.96875 -0.046875 C 2.75 -0.046875 1.84375 -0.441406 1.25 -1.234375 C 0.664062 -2.023438 0.375 -3.113281 0.375 -4.5 Z M 4.9375 -4.5 C 4.9375 -5.132812 4.867188 -5.613281 4.734375 -5.9375 C 4.609375 -6.257812 4.351562 -6.421875 3.96875 -6.421875 C 3.570312 -6.421875 3.304688 -6.257812 3.171875 -5.9375 C 3.046875 -5.613281 2.984375 -5.132812 2.984375 -4.5 C 2.984375 -3.851562 3.046875 -3.367188 3.171875 -3.046875 C 3.304688 -2.722656 3.570312 -2.5625 3.96875 -2.5625 C 4.351562 -2.5625 4.609375 -2.722656 4.734375 -3.046875 C 4.867188 -3.367188 4.9375 -3.851562 4.9375 -4.5 Z M 4.9375 -4.5 "/></g></g></g><g fill="#ffffff" fill-opacity="1"><g transform="translate(77.649017, 95.234619)"><g><path d="M 0.375 -4.5 C 0.375 -5.875 0.664062 -6.953125 1.25 -7.734375 C 1.84375 -8.523438 2.75 -8.921875 3.96875 -8.921875 C 5.175781 -8.921875 6.070312 -8.523438 6.65625 -7.734375 C 7.25 -6.941406 7.546875 -5.863281 7.546875 -4.5 C 7.546875 -3.113281 7.25 -2.023438 6.65625 -1.234375 C 6.070312 -0.441406 5.175781 -0.046875 3.96875 -0.046875 C 2.75 -0.046875 1.84375 -0.441406 1.25 -1.234375 C 0.664062 -2.023438 0.375 -3.113281 0.375 -4.5 Z M 4.9375 -4.5 C 4.9375 -5.132812 4.867188 -5.613281 4.734375 -5.9375 C 4.609375 -6.257812 4.351562 -6.421875 3.96875 -6.421875 C 3.570312 -6.421875 3.304688 -6.257812 3.171875 -5.9375 C 3.046875 -5.613281 2.984375 -5.132812 2.984375 -4.5 C 2.984375 -3.851562 3.046875 -3.367188 3.171875 -3.046875 C 3.304688 -2.722656 3.570312 -2.5625 3.96875 -2.5625 C 4.351562 -2.5625 4.609375 -2.722656 4.734375 -3.046875 C 4.867188 -3.367188 4.9375 -3.851562 4.9375 -4.5 Z M 4.9375 -4.5 "/></g></g></g><g fill="#ffffff" fill-opacity="1"><g transform="translate(85.564112, 95.234619)"><g><path d="M 0.125 -6.25 L 0.125 -8.734375 L 4.171875 -8.734375 L 4.171875 0 L 1.390625 0 L 1.390625 -6.25 Z M 0.125 -6.25 "/></g></g></g><g fill="#ffffff" fill-opacity="1"><g transform="translate(90.334689, 95.234619)"><g/></g></g><g fill="#ffffff" fill-opacity="1"><g transform="translate(92.367266, 95.234619)"><g><path d="M 1.90625 0.09375 C 1.445312 0.09375 1.078125 -0.0234375 0.796875 -0.265625 C 0.515625 -0.515625 0.375 -0.828125 0.375 -1.203125 C 0.375 -1.585938 0.515625 -1.90625 0.796875 -2.15625 C 1.078125 -2.40625 1.445312 -2.53125 1.90625 -2.53125 C 2.363281 -2.53125 2.734375 -2.40625 3.015625 -2.15625 C 3.296875 -1.90625 3.4375 -1.585938 3.4375 -1.203125 C 3.4375 -0.828125 3.296875 -0.515625 3.015625 -0.265625 C 2.734375 -0.0234375 2.363281 0.09375 1.90625 0.09375 Z M 1.90625 -4.640625 C 1.445312 -4.640625 1.078125 -4.757812 0.796875 -5 C 0.515625 -5.25 0.375 -5.5625 0.375 -5.9375 C 0.375 -6.320312 0.515625 -6.640625 0.796875 -6.890625 C 1.078125 -7.140625 1.445312 -7.265625 1.90625 -7.265625 C 2.363281 -7.265625 2.734375 -7.140625 3.015625 -6.890625 C 3.296875 -6.640625 3.4375 -6.320312 3.4375 -5.9375 C 3.4375 -5.5625 3.296875 -5.25 3.015625 -5 C 2.734375 -4.757812 2.363281 -4.640625 1.90625 -4.640625 Z M 1.90625 -4.640625 "/></g></g></g><g fill="#ffffff" fill-opacity="1"><g transform="translate(96.181333, 95.234619)"><g/></g></g><g fill="#ffffff" fill-opacity="1"><g transform="translate(98.213911, 95.234619)"><g><path d="M 0.328125 -2.109375 C 1.398438 -2.910156 2.242188 -3.632812 2.859375 -4.28125 C 3.484375 -4.9375 3.796875 -5.546875 3.796875 -6.109375 C 3.796875 -6.296875 3.753906 -6.441406 3.671875 -6.546875 C 3.585938 -6.648438 3.476562 -6.703125 3.34375 -6.703125 C 3.1875 -6.703125 3.0625 -6.617188 2.96875 -6.453125 C 2.875 -6.296875 2.84375 -6.050781 2.875 -5.71875 L 0.296875 -5.71875 C 0.316406 -6.457031 0.476562 -7.066406 0.78125 -7.546875 C 1.082031 -8.023438 1.472656 -8.375 1.953125 -8.59375 C 2.429688 -8.8125 2.957031 -8.921875 3.53125 -8.921875 C 4.550781 -8.921875 5.296875 -8.675781 5.765625 -8.1875 C 6.242188 -7.695312 6.484375 -7.070312 6.484375 -6.3125 C 6.484375 -5.507812 6.222656 -4.753906 5.703125 -4.046875 C 5.191406 -3.335938 4.550781 -2.742188 3.78125 -2.265625 L 6.515625 -2.265625 L 6.515625 -0.125 L 0.328125 -0.125 Z M 0.328125 -2.109375 "/></g></g></g><g fill="#ffffff" fill-opacity="1"><g transform="translate(104.981203, 95.234619)"><g><path d="M 0.375 -4.5 C 0.375 -5.875 0.664062 -6.953125 1.25 -7.734375 C 1.84375 -8.523438 2.75 -8.921875 3.96875 -8.921875 C 5.175781 -8.921875 6.070312 -8.523438 6.65625 -7.734375 C 7.25 -6.941406 7.546875 -5.863281 7.546875 -4.5 C 7.546875 -3.113281 7.25 -2.023438 6.65625 -1.234375 C 6.070312 -0.441406 5.175781 -0.046875 3.96875 -0.046875 C 2.75 -0.046875 1.84375 -0.441406 1.25 -1.234375 C 0.664062 -2.023438 0.375 -3.113281 0.375 -4.5 Z M 4.9375 -4.5 C 4.9375 -5.132812 4.867188 -5.613281 4.734375 -5.9375 C 4.609375 -6.257812 4.351562 -6.421875 3.96875 -6.421875 C 3.570312 -6.421875 3.304688 -6.257812 3.171875 -5.9375 C 3.046875 -5.613281 2.984375 -5.132812 2.984375 -4.5 C 2.984375 -3.851562 3.046875 -3.367188 3.171875 -3.046875 C 3.304688 -2.722656 3.570312 -2.5625 3.96875 -2.5625 C 4.351562 -2.5625 4.609375 -2.722656 4.734375 -3.046875 C 4.867188 -3.367188 4.9375 -3.851562 4.9375 -4.5 Z M 4.9375 -4.5 "/></g></g></g><g fill="#ffffff" fill-opacity="1"><g transform="translate(112.896299, 95.234619)"><g><path d="M 0.328125 -2.109375 C 1.398438 -2.910156 2.242188 -3.632812 2.859375 -4.28125 C 3.484375 -4.9375 3.796875 -5.546875 3.796875 -6.109375 C 3.796875 -6.296875 3.753906 -6.441406 3.671875 -6.546875 C 3.585938 -6.648438 3.476562 -6.703125 3.34375 -6.703125 C 3.1875 -6.703125 3.0625 -6.617188 2.96875 -6.453125 C 2.875 -6.296875 2.84375 -6.050781 2.875 -5.71875 L 0.296875 -5.71875 C 0.316406 -6.457031 0.476562 -7.066406 0.78125 -7.546875 C 1.082031 -8.023438 1.472656 -8.375 1.953125 -8.59375 C 2.429688 -8.8125 2.957031 -8.921875 3.53125 -8.921875 C 4.550781 -8.921875 5.296875 -8.675781 5.765625 -8.1875 C 6.242188 -7.695312 6.484375 -7.070312 6.484375 -6.3125 C 6.484375 -5.507812 6.222656 -4.753906 5.703125 -4.046875 C 5.191406 -3.335938 4.550781 -2.742188 3.78125 -2.265625 L 6.515625 -2.265625 L 6.515625 -0.125 L 0.328125 -0.125 Z M 0.328125 -2.109375 "/></g></g></g><g fill="#ffffff" fill-opacity="1"><g transform="translate(119.663591, 95.234619)"><g><path d="M 6.984375 -6.40625 L 3.515625 -6.40625 L 3.515625 -5.40625 C 3.660156 -5.539062 3.851562 -5.644531 4.09375 -5.71875 C 4.34375 -5.800781 4.617188 -5.84375 4.921875 -5.84375 C 5.460938 -5.84375 5.921875 -5.710938 6.296875 -5.453125 C 6.671875 -5.203125 6.945312 -4.863281 7.125 -4.4375 C 7.3125 -4.007812 7.40625 -3.539062 7.40625 -3.03125 C 7.40625 -2.070312 7.132812 -1.328125 6.59375 -0.796875 C 6.0625 -0.265625 5.328125 0 4.390625 0 C 3.703125 0 3.109375 -0.117188 2.609375 -0.359375 C 2.109375 -0.597656 1.726562 -0.925781 1.46875 -1.34375 C 1.21875 -1.769531 1.097656 -2.253906 1.109375 -2.796875 L 3.6875 -2.796875 C 3.6875 -2.671875 3.726562 -2.550781 3.8125 -2.4375 C 3.90625 -2.320312 4.050781 -2.265625 4.25 -2.265625 C 4.445312 -2.265625 4.59375 -2.335938 4.6875 -2.484375 C 4.789062 -2.628906 4.84375 -2.828125 4.84375 -3.078125 C 4.84375 -3.304688 4.785156 -3.476562 4.671875 -3.59375 C 4.566406 -3.71875 4.414062 -3.78125 4.21875 -3.78125 C 4.050781 -3.78125 3.921875 -3.738281 3.828125 -3.65625 C 3.742188 -3.570312 3.703125 -3.476562 3.703125 -3.375 L 1.125 -3.375 L 1.125 -8.734375 L 6.984375 -8.734375 Z M 6.984375 -6.40625 "/></g></g></g><g clip-path="url(#aa41221b4d)"><g clip-path="url(#bc6d7f5c17)"><g transform="matrix(1, 0, 0, 1, 40, 86)"><g clip-path="url(#c3526058a6)"><g clip-path="url(#b00abee7af)"><g clip-path="url(#9527d359e7)"><path fill="#ffffff" d="M 0.0429688 0.925781 L 9.644531 0.925781 L 9.644531 10.0625 L 0.0429688 10.0625 Z M 0.0429688 0.925781 " fill-opacity="1" fill-rule="nonzero"/></g></g></g></g></g></g><g clip-path="url(#e79df2aad1)"><g clip-path="url(#6422ce3627)"><g transform="matrix(1, 0, 0, 1, 130, 86)"><g clip-path="url(#f2dff204a2)"><g clip-path="url(#7f03e6aad3)"><g clip-path="url(#119d26a839)"><path fill="#ffffff" d="M 0.402344 0.179688 L 10.003906 0.179688 L 10.003906 9.316406 L 0.402344 9.316406 Z M 0.402344 0.179688 " fill-opacity="1" fill-rule="nonzero"/></g></g></g></g></g></g><g clip-path="url(#1ad3328611)"><path fill="#000000" d="M 85.265625 129.21875 C 86.769531 130.589844 87.746094 131.824219 89.355469 134.683594 C 92.859375 125.839844 97.660156 123.566406 97.050781 123.175781 C 95.820312 122.351562 89.832031 129.273438 89.105469 130.1875 C 88.234375 129.726562 85.265625 128.113281 85.265625 129.21875 Z M 85.265625 129.21875 " fill-opacity="1" fill-rule="evenodd"/></g><g clip-path="url(#1bcb5a8415)"><path stroke-linecap="round" transform="matrix(0.357932, 0, 0, 0.357932, 81.507274, 117.663103)" fill="none" stroke-linejoin="round" d="M 10.500176 32.284456 C 14.701827 36.115053 17.430172 39.563681 21.926484 47.552275 C 31.715786 22.844383 45.128329 16.492796 43.425842 15.401458 C 39.988127 13.098735 23.257916 32.437244 21.228028 34.990975 C 18.794344 33.703196 10.500176 29.19597 10.500176 32.284456 Z M 10.500176 32.284456 " stroke="#333333" stroke-width="1.875" stroke-opacity="1" stroke-miterlimit="4"/></g><g fill="#000000" fill-opacity="1"><g transform="translate(74.749711, 70.668691)"><g><path d="M 0.296875 0 C 0.460938 -0.144531 0.59375 -0.398438 0.6875 -0.765625 C 0.78125 -1.128906 0.828125 -1.5 0.828125 -1.875 L 0.828125 -12.5625 C 0.828125 -12.9375 0.78125 -13.300781 0.6875 -13.65625 C 0.59375 -14.019531 0.460938 -14.28125 0.296875 -14.4375 L 4.703125 -14.4375 C 4.535156 -14.28125 4.40625 -14.023438 4.3125 -13.671875 C 4.226562 -13.316406 4.1875 -12.953125 4.1875 -12.578125 L 4.1875 -1.859375 C 4.1875 -1.484375 4.226562 -1.113281 4.3125 -0.75 C 4.40625 -0.394531 4.535156 -0.144531 4.703125 0 Z M 0.296875 0 "/></g></g></g><g fill="#000000" fill-opacity="1"><g transform="translate(79.757463, 70.668691)"><g><path d="M 0.296875 -2.453125 C 0.617188 -2.835938 0.925781 -3.242188 1.21875 -3.671875 C 1.519531 -4.109375 1.78125 -4.546875 2 -4.984375 C 2.257812 -4.566406 2.582031 -4.179688 2.96875 -3.828125 C 3.351562 -3.484375 3.773438 -3.207031 4.234375 -3 C 4.703125 -2.800781 5.191406 -2.703125 5.703125 -2.703125 C 6.066406 -2.703125 6.410156 -2.75 6.734375 -2.84375 C 7.054688 -2.9375 7.316406 -3.085938 7.515625 -3.296875 C 7.722656 -3.515625 7.828125 -3.789062 7.828125 -4.125 C 7.828125 -4.4375 7.695312 -4.691406 7.4375 -4.890625 C 7.175781 -5.085938 6.828125 -5.253906 6.390625 -5.390625 C 5.960938 -5.535156 5.492188 -5.675781 4.984375 -5.8125 C 4.472656 -5.957031 3.957031 -6.128906 3.4375 -6.328125 C 2.914062 -6.523438 2.441406 -6.78125 2.015625 -7.09375 C 1.585938 -7.414062 1.238281 -7.828125 0.96875 -8.328125 C 0.707031 -8.828125 0.578125 -9.441406 0.578125 -10.171875 C 0.578125 -10.878906 0.742188 -11.507812 1.078125 -12.0625 C 1.410156 -12.613281 1.859375 -13.082031 2.421875 -13.46875 C 2.992188 -13.863281 3.628906 -14.160156 4.328125 -14.359375 C 5.023438 -14.554688 5.738281 -14.65625 6.46875 -14.65625 C 7.425781 -14.65625 8.234375 -14.550781 8.890625 -14.34375 C 9.546875 -14.144531 10.085938 -13.898438 10.515625 -13.609375 C 10.953125 -13.316406 11.320312 -13.039062 11.625 -12.78125 C 11.375 -12.394531 11.09375 -11.984375 10.78125 -11.546875 C 10.476562 -11.117188 10.195312 -10.65625 9.9375 -10.15625 C 9.507812 -10.539062 9.003906 -10.878906 8.421875 -11.171875 C 7.847656 -11.472656 7.222656 -11.625 6.546875 -11.625 C 6.234375 -11.625 5.910156 -11.578125 5.578125 -11.484375 C 5.242188 -11.390625 4.960938 -11.242188 4.734375 -11.046875 C 4.515625 -10.847656 4.40625 -10.585938 4.40625 -10.265625 C 4.40625 -9.921875 4.53125 -9.644531 4.78125 -9.4375 C 5.039062 -9.238281 5.378906 -9.070312 5.796875 -8.9375 C 6.222656 -8.8125 6.691406 -8.679688 7.203125 -8.546875 C 7.710938 -8.421875 8.21875 -8.269531 8.71875 -8.09375 C 9.226562 -7.914062 9.691406 -7.675781 10.109375 -7.375 C 10.535156 -7.070312 10.875 -6.679688 11.125 -6.203125 C 11.382812 -5.734375 11.515625 -5.132812 11.515625 -4.40625 C 11.515625 -3.4375 11.253906 -2.601562 10.734375 -1.90625 C 10.210938 -1.21875 9.503906 -0.691406 8.609375 -0.328125 C 7.722656 0.0351562 6.722656 0.21875 5.609375 0.21875 C 4.984375 0.21875 4.375 0.144531 3.78125 0 C 3.1875 -0.15625 2.644531 -0.363281 2.15625 -0.625 C 1.664062 -0.882812 1.257812 -1.171875 0.9375 -1.484375 C 0.613281 -1.804688 0.398438 -2.128906 0.296875 -2.453125 Z M 0.296875 -2.453125 "/></g></g></g><g fill="#000000" fill-opacity="1"><g transform="translate(91.671412, 70.668691)"><g><path d="M 0.515625 -7.203125 C 0.515625 -8.234375 0.644531 -9.195312 0.90625 -10.09375 C 1.175781 -11 1.582031 -11.789062 2.125 -12.46875 C 2.675781 -13.15625 3.378906 -13.691406 4.234375 -14.078125 C 5.085938 -14.460938 6.101562 -14.65625 7.28125 -14.65625 C 8.46875 -14.65625 9.488281 -14.460938 10.34375 -14.078125 C 11.195312 -13.691406 11.894531 -13.15625 12.4375 -12.46875 C 12.976562 -11.789062 13.378906 -11 13.640625 -10.09375 C 13.910156 -9.195312 14.046875 -8.234375 14.046875 -7.203125 C 14.046875 -6.179688 13.910156 -5.21875 13.640625 -4.3125 C 13.378906 -3.414062 12.976562 -2.625 12.4375 -1.9375 C 11.894531 -1.257812 11.195312 -0.726562 10.34375 -0.34375 C 9.488281 0.03125 8.46875 0.21875 7.28125 0.21875 C 6.101562 0.21875 5.085938 0.03125 4.234375 -0.34375 C 3.378906 -0.726562 2.675781 -1.257812 2.125 -1.9375 C 1.582031 -2.625 1.175781 -3.414062 0.90625 -4.3125 C 0.644531 -5.21875 0.515625 -6.179688 0.515625 -7.203125 Z M 3.890625 -7.21875 C 3.890625 -6.394531 4.003906 -5.632812 4.234375 -4.9375 C 4.472656 -4.25 4.835938 -3.695312 5.328125 -3.28125 C 5.828125 -2.875 6.472656 -2.671875 7.265625 -2.671875 C 8.066406 -2.671875 8.71875 -2.875 9.21875 -3.28125 C 9.71875 -3.695312 10.082031 -4.25 10.3125 -4.9375 C 10.550781 -5.632812 10.671875 -6.394531 10.671875 -7.21875 C 10.671875 -8.0625 10.550781 -8.828125 10.3125 -9.515625 C 10.082031 -10.203125 9.71875 -10.75 9.21875 -11.15625 C 8.71875 -11.5625 8.066406 -11.765625 7.265625 -11.765625 C 6.472656 -11.765625 5.828125 -11.5625 5.328125 -11.15625 C 4.835938 -10.75 4.472656 -10.203125 4.234375 -9.515625 C 4.003906 -8.828125 3.890625 -8.0625 3.890625 -7.21875 Z M 3.890625 -7.21875 "/></g></g></g><g fill="#000000" fill-opacity="1"><g transform="translate(64.143231, 117.132628)"><g><path d="M 0.3125 -3.65625 C 0.3125 -4.382812 0.457031 -5.03125 0.75 -5.59375 C 1.039062 -6.15625 1.457031 -6.59375 2 -6.90625 C 2.539062 -7.21875 3.179688 -7.375 3.921875 -7.375 C 4.554688 -7.375 5.117188 -7.253906 5.609375 -7.015625 C 6.109375 -6.773438 6.515625 -6.4375 6.828125 -6 C 7.140625 -5.570312 7.347656 -5.070312 7.453125 -4.5 L 5.046875 -4.5 C 4.929688 -4.738281 4.769531 -4.925781 4.5625 -5.0625 C 4.363281 -5.195312 4.132812 -5.265625 3.875 -5.265625 C 3.488281 -5.265625 3.179688 -5.117188 2.953125 -4.828125 C 2.734375 -4.535156 2.625 -4.144531 2.625 -3.65625 C 2.625 -3.164062 2.734375 -2.773438 2.953125 -2.484375 C 3.179688 -2.203125 3.488281 -2.0625 3.875 -2.0625 C 4.132812 -2.0625 4.363281 -2.128906 4.5625 -2.265625 C 4.769531 -2.398438 4.929688 -2.585938 5.046875 -2.828125 L 7.453125 -2.828125 C 7.347656 -2.242188 7.140625 -1.734375 6.828125 -1.296875 C 6.515625 -0.867188 6.109375 -0.535156 5.609375 -0.296875 C 5.117188 -0.0664062 4.554688 0.046875 3.921875 0.046875 C 3.179688 0.046875 2.539062 -0.109375 2 -0.421875 C 1.457031 -0.734375 1.039062 -1.171875 0.75 -1.734375 C 0.457031 -2.296875 0.3125 -2.9375 0.3125 -3.65625 Z M 0.3125 -3.65625 "/></g></g></g><g fill="#000000" fill-opacity="1"><g transform="translate(71.896663, 117.132628)"><g><path d="M 2.8125 -5.46875 L 2.8125 -4.578125 L 5.078125 -4.578125 L 5.078125 -2.859375 L 2.8125 -2.859375 L 2.8125 -1.828125 L 5.390625 -1.828125 L 5.390625 0 L 0.515625 0 L 0.515625 -7.296875 L 5.390625 -7.296875 L 5.390625 -5.46875 Z M 2.8125 -5.46875 "/></g></g></g><g fill="#000000" fill-opacity="1"><g transform="translate(77.621638, 117.132628)"><g><path d="M 4.1875 0 L 2.8125 -2.625 L 2.8125 0 L 0.515625 0 L 0.515625 -7.296875 L 3.921875 -7.296875 C 4.515625 -7.296875 5.019531 -7.191406 5.4375 -6.984375 C 5.851562 -6.773438 6.164062 -6.488281 6.375 -6.125 C 6.582031 -5.769531 6.6875 -5.363281 6.6875 -4.90625 C 6.6875 -4.414062 6.550781 -3.984375 6.28125 -3.609375 C 6.007812 -3.234375 5.617188 -2.960938 5.109375 -2.796875 L 6.703125 0 Z M 2.8125 -4.140625 L 3.71875 -4.140625 C 3.9375 -4.140625 4.097656 -4.1875 4.203125 -4.28125 C 4.316406 -4.382812 4.375 -4.546875 4.375 -4.765625 C 4.375 -4.953125 4.316406 -5.101562 4.203125 -5.21875 C 4.085938 -5.332031 3.925781 -5.390625 3.71875 -5.390625 L 2.8125 -5.390625 Z M 2.8125 -4.140625 "/></g></g></g><g fill="#000000" fill-opacity="1"><g transform="translate(84.520439, 117.132628)"><g><path d="M 6.25 -7.296875 L 6.25 -5.484375 L 4.3125 -5.484375 L 4.3125 0 L 2.015625 0 L 2.015625 -5.484375 L 0.109375 -5.484375 L 0.109375 -7.296875 Z M 6.25 -7.296875 "/></g></g></g><g fill="#000000" fill-opacity="1"><g transform="translate(90.863223, 117.132628)"><g><path d="M 2.8125 -7.296875 L 2.8125 0 L 0.515625 0 L 0.515625 -7.296875 Z M 2.8125 -7.296875 "/></g></g></g><g fill="#000000" fill-opacity="1"><g transform="translate(94.178765, 117.132628)"><g><path d="M 5.671875 -7.296875 L 5.671875 -5.484375 L 2.8125 -5.484375 L 2.8125 -4.46875 L 4.875 -4.46875 L 4.875 -2.75 L 2.8125 -2.75 L 2.8125 0 L 0.515625 0 L 0.515625 -7.296875 Z M 5.671875 -7.296875 "/></g></g></g><g fill="#000000" fill-opacity="1"><g transform="translate(100.099381, 117.132628)"><g><path d="M 2.8125 -7.296875 L 2.8125 0 L 0.515625 0 L 0.515625 -7.296875 Z M 2.8125 -7.296875 "/></g></g></g><g fill="#000000" fill-opacity="1"><g transform="translate(103.414922, 117.132628)"><g><path d="M 2.8125 -5.46875 L 2.8125 -4.578125 L 5.078125 -4.578125 L 5.078125 -2.859375 L 2.8125 -2.859375 L 2.8125 -1.828125 L 5.390625 -1.828125 L 5.390625 0 L 0.515625 0 L 0.515625 -7.296875 L 5.390625 -7.296875 L 5.390625 -5.46875 Z M 2.8125 -5.46875 "/></g></g></g><g fill="#000000" fill-opacity="1"><g transform="translate(109.139897, 117.132628)"><g><path d="M 3.5625 -7.296875 C 4.320312 -7.296875 4.988281 -7.140625 5.5625 -6.828125 C 6.132812 -6.523438 6.578125 -6.097656 6.890625 -5.546875 C 7.203125 -4.992188 7.359375 -4.367188 7.359375 -3.671875 C 7.359375 -2.972656 7.203125 -2.34375 6.890625 -1.78125 C 6.578125 -1.226562 6.132812 -0.789062 5.5625 -0.46875 C 4.988281 -0.15625 4.320312 0 3.5625 0 L 0.515625 0 L 0.515625 -7.296875 Z M 3.359375 -2.046875 C 3.867188 -2.046875 4.273438 -2.1875 4.578125 -2.46875 C 4.878906 -2.75 5.03125 -3.148438 5.03125 -3.671875 C 5.03125 -4.191406 4.878906 -4.59375 4.578125 -4.875 C 4.273438 -5.15625 3.867188 -5.296875 3.359375 -5.296875 L 2.8125 -5.296875 L 2.8125 -2.046875 Z M 3.359375 -2.046875 "/></g></g></g><g transform="matrix(1, 0, 0, 1, 46, 41)"><g clip-path="url(#f67a5018e8)"><g fill="#000000" fill-opacity="1"><g transform="translate(5.036898, 27.221723)"><g><path d="M 0.9375 -1.328125 C 0.789062 -1.117188 0.625 -0.953125 0.4375 -0.828125 C 0.25 -0.703125 0.0546875 -0.632812 -0.140625 -0.625 C -0.347656 -0.625 -0.546875 -0.679688 -0.734375 -0.796875 L -0.296875 -1.453125 C -0.160156 -1.378906 -0.03125 -1.359375 0.09375 -1.390625 C 0.21875 -1.421875 0.328125 -1.507812 0.421875 -1.65625 C 0.515625 -1.789062 0.554688 -1.921875 0.546875 -2.046875 C 0.535156 -2.179688 0.472656 -2.285156 0.359375 -2.359375 C 0.273438 -2.421875 0.1875 -2.441406 0.09375 -2.421875 C 0 -2.398438 -0.09375 -2.359375 -0.1875 -2.296875 C -0.28125 -2.234375 -0.394531 -2.144531 -0.53125 -2.03125 C -0.726562 -1.882812 -0.894531 -1.765625 -1.03125 -1.671875 C -1.164062 -1.585938 -1.316406 -1.539062 -1.484375 -1.53125 C -1.660156 -1.519531 -1.84375 -1.578125 -2.03125 -1.703125 C -2.21875 -1.828125 -2.347656 -1.976562 -2.421875 -2.15625 C -2.492188 -2.332031 -2.507812 -2.523438 -2.46875 -2.734375 C -2.4375 -2.941406 -2.347656 -3.148438 -2.203125 -3.359375 C -1.992188 -3.671875 -1.75 -3.875 -1.46875 -3.96875 C -1.1875 -4.070312 -0.898438 -4.039062 -0.609375 -3.875 L -1.0625 -3.203125 C -1.164062 -3.273438 -1.273438 -3.289062 -1.390625 -3.25 C -1.515625 -3.207031 -1.625 -3.117188 -1.71875 -2.984375 C -1.800781 -2.859375 -1.835938 -2.742188 -1.828125 -2.640625 C -1.816406 -2.535156 -1.753906 -2.441406 -1.640625 -2.359375 C -1.554688 -2.304688 -1.46875 -2.285156 -1.375 -2.296875 C -1.289062 -2.316406 -1.203125 -2.351562 -1.109375 -2.40625 C -1.023438 -2.46875 -0.910156 -2.554688 -0.765625 -2.671875 C -0.585938 -2.828125 -0.425781 -2.945312 -0.28125 -3.03125 C -0.132812 -3.125 0.0234375 -3.175781 0.203125 -3.1875 C 0.378906 -3.195312 0.5625 -3.140625 0.75 -3.015625 C 0.90625 -2.898438 1.023438 -2.753906 1.109375 -2.578125 C 1.191406 -2.398438 1.21875 -2.203125 1.1875 -1.984375 C 1.164062 -1.773438 1.082031 -1.554688 0.9375 -1.328125 Z M 0.9375 -1.328125 "/></g></g></g><g fill="#000000" fill-opacity="1"><g transform="translate(7.002278, 24.327229)"><g><path d="M -1.734375 -2.75 L -1.015625 -2.1875 L -0.25 -3.15625 L 0.203125 -2.796875 L -0.5625 -1.828125 L 0.203125 -1.21875 L 1.0625 -2.3125 L 1.53125 -1.953125 L 0.21875 -0.28125 L -2.65625 -2.53125 L -1.34375 -4.203125 L -0.875 -3.84375 Z M -1.734375 -2.75 "/></g></g></g><g fill="#000000" fill-opacity="1"><g transform="translate(8.896283, 21.890427)"><g><path d="M -1.21875 -1.390625 C -1.476562 -1.628906 -1.65625 -1.90625 -1.75 -2.21875 C -1.851562 -2.53125 -1.867188 -2.84375 -1.796875 -3.15625 C -1.722656 -3.46875 -1.570312 -3.75 -1.34375 -4 C -1.050781 -4.3125 -0.722656 -4.503906 -0.359375 -4.578125 C -0.00390625 -4.660156 0.347656 -4.625 0.703125 -4.46875 L 0.140625 -3.84375 C -0.046875 -3.894531 -0.222656 -3.894531 -0.390625 -3.84375 C -0.566406 -3.800781 -0.722656 -3.707031 -0.859375 -3.5625 C -0.992188 -3.414062 -1.082031 -3.242188 -1.125 -3.046875 C -1.164062 -2.859375 -1.148438 -2.664062 -1.078125 -2.46875 C -1.003906 -2.28125 -0.878906 -2.101562 -0.703125 -1.9375 C -0.523438 -1.769531 -0.335938 -1.65625 -0.140625 -1.59375 C 0.0546875 -1.539062 0.25 -1.539062 0.4375 -1.59375 C 0.625 -1.65625 0.785156 -1.757812 0.921875 -1.90625 C 1.054688 -2.050781 1.140625 -2.207031 1.171875 -2.375 C 1.210938 -2.550781 1.203125 -2.726562 1.140625 -2.90625 L 1.703125 -3.53125 C 1.890625 -3.1875 1.957031 -2.832031 1.90625 -2.46875 C 1.851562 -2.113281 1.679688 -1.78125 1.390625 -1.46875 C 1.160156 -1.21875 0.890625 -1.039062 0.578125 -0.9375 C 0.273438 -0.84375 -0.03125 -0.832031 -0.34375 -0.90625 C -0.664062 -0.976562 -0.957031 -1.140625 -1.21875 -1.390625 Z M -1.21875 -1.390625 "/></g></g></g><g fill="#000000" fill-opacity="1"><g transform="translate(11.846851, 18.749418)"><g><path d="M -1.640625 -3.4375 L -0.125 -1.75 C 0.0390625 -1.5625 0.210938 -1.460938 0.390625 -1.453125 C 0.578125 -1.453125 0.757812 -1.53125 0.9375 -1.6875 C 1.113281 -1.84375 1.207031 -2.007812 1.21875 -2.1875 C 1.226562 -2.363281 1.148438 -2.546875 0.984375 -2.734375 L -0.53125 -4.421875 L 0.015625 -4.921875 L 1.53125 -3.234375 C 1.726562 -3.015625 1.851562 -2.773438 1.90625 -2.515625 C 1.957031 -2.265625 1.929688 -2.023438 1.828125 -1.796875 C 1.722656 -1.578125 1.566406 -1.375 1.359375 -1.1875 C 1.160156 -1.007812 0.941406 -0.878906 0.703125 -0.796875 C 0.472656 -0.722656 0.238281 -0.726562 0 -0.8125 C -0.25 -0.894531 -0.472656 -1.046875 -0.671875 -1.265625 L -2.1875 -2.953125 Z M -1.640625 -3.4375 "/></g></g></g><g fill="#000000" fill-opacity="1"><g transform="translate(14.802243, 16.13349)"><g><path d="M 1.796875 -1.34375 L 0.296875 -2 L 0.015625 -1.796875 L 0.875 -0.65625 L 0.28125 -0.21875 L -1.90625 -3.140625 L -0.796875 -3.96875 C -0.578125 -4.132812 -0.359375 -4.238281 -0.140625 -4.28125 C 0.078125 -4.320312 0.273438 -4.300781 0.453125 -4.21875 C 0.640625 -4.144531 0.796875 -4.023438 0.921875 -3.859375 C 1.066406 -3.660156 1.140625 -3.441406 1.140625 -3.203125 C 1.148438 -2.972656 1.066406 -2.742188 0.890625 -2.515625 L 2.46875 -1.859375 Z M -0.3125 -2.234375 L 0.171875 -2.59375 C 0.328125 -2.71875 0.414062 -2.847656 0.4375 -2.984375 C 0.46875 -3.117188 0.429688 -3.253906 0.328125 -3.390625 C 0.234375 -3.523438 0.117188 -3.597656 -0.015625 -3.609375 C -0.160156 -3.628906 -0.3125 -3.578125 -0.46875 -3.453125 L -0.953125 -3.09375 Z M -0.3125 -2.234375 "/></g></g></g><g fill="#000000" fill-opacity="1"><g transform="translate(17.769616, 13.955335)"><g><path d="M -1.109375 -3.640625 L 0.90625 -0.59375 L 0.296875 -0.203125 L -1.71875 -3.25 Z M -1.109375 -3.640625 "/></g></g></g><g fill="#000000" fill-opacity="1"><g transform="translate(19.253405, 12.963583)"><g><path d="M 0.640625 -4.59375 L 0.9375 -4.078125 L 0.09375 -3.59375 L 1.625 -0.9375 L 0.984375 -0.578125 L -0.546875 -3.234375 L -1.375 -2.75 L -1.671875 -3.265625 Z M 0.640625 -4.59375 "/></g></g></g><g fill="#000000" fill-opacity="1"><g transform="translate(22.136311, 11.302594)"><g><path d="M 1.375 -4.703125 L 1.28125 -2.015625 L 1.828125 -0.875 L 1.171875 -0.5625 L 0.625 -1.703125 L -1.515625 -3.328125 L -0.78125 -3.6875 L 0.65625 -2.515625 L 0.640625 -4.359375 Z M 1.375 -4.703125 "/></g></g></g><g fill="#000000" fill-opacity="1"><g transform="translate(25.453611, 9.76134)"><g/></g></g><g fill="#000000" fill-opacity="1"><g transform="translate(26.88968, 9.136812)"><g><path d="M 0.125 -2.953125 L 1 -0.328125 L 0.296875 -0.09375 L -0.8125 -3.453125 L 0.21875 -3.796875 L 1.71875 -1.328125 L 1.421875 -4.203125 L 2.46875 -4.546875 L 3.578125 -1.1875 L 2.875 -0.953125 L 2 -3.578125 L 2.28125 -0.75 L 1.609375 -0.53125 Z M 0.125 -2.953125 "/></g></g></g><g fill="#000000" fill-opacity="1"><g transform="translate(31.010321, 7.797194)"><g><path d="M 2.203125 -1.25 L 0.921875 -0.953125 L 0.859375 -0.203125 L 0.125 -0.03125 L 0.546875 -3.75 L 1.328125 -3.9375 L 3.3125 -0.765625 L 2.609375 -0.609375 Z M 1.875 -1.78125 L 1.109375 -3.03125 L 0.984375 -1.578125 Z M 1.875 -1.78125 "/></g></g></g><g fill="#000000" fill-opacity="1"><g transform="translate(34.71428, 6.947902)"><g><path d="M 2.453125 -0.359375 L 0.703125 -2.5625 L 1.046875 -0.15625 L 0.328125 -0.046875 L -0.171875 -3.546875 L 0.5625 -3.65625 L 2.296875 -1.46875 L 1.953125 -3.859375 L 2.671875 -3.953125 L 3.171875 -0.453125 Z M 2.453125 -0.359375 "/></g></g></g><g fill="#000000" fill-opacity="1"><g transform="translate(38.477228, 6.418384)"><g><path d="M 2.375 -0.859375 L 1.0625 -0.78125 L 0.875 -0.046875 L 0.125 0 L 1.171875 -3.609375 L 1.984375 -3.65625 L 3.40625 -0.203125 L 2.671875 -0.15625 Z M 2.15625 -1.4375 L 1.609375 -2.796875 L 1.234375 -1.390625 Z M 2.15625 -1.4375 "/></g></g></g><g fill="#000000" fill-opacity="1"><g transform="translate(42.268261, 6.206691)"><g><path d="M 2.84375 -2.328125 C 2.726562 -2.703125 2.453125 -2.894531 2.015625 -2.90625 C 1.703125 -2.914062 1.457031 -2.816406 1.28125 -2.609375 C 1.101562 -2.398438 1.003906 -2.101562 0.984375 -1.71875 C 0.972656 -1.351562 1.054688 -1.050781 1.234375 -0.8125 C 1.421875 -0.570312 1.660156 -0.445312 1.953125 -0.4375 C 2.015625 -0.4375 2.082031 -0.445312 2.15625 -0.46875 C 2.238281 -0.5 2.332031 -0.535156 2.4375 -0.578125 C 2.539062 -0.628906 2.632812 -0.707031 2.71875 -0.8125 C 2.800781 -0.914062 2.859375 -1.046875 2.890625 -1.203125 L 2.078125 -1.234375 L 2.09375 -1.84375 L 3.515625 -1.796875 L 3.453125 0.125 L 3.015625 0.109375 L 2.9375 -0.359375 C 2.789062 -0.171875 2.632812 -0.0351562 2.46875 0.046875 C 2.300781 0.128906 2.097656 0.171875 1.859375 0.171875 C 1.378906 0.148438 0.988281 -0.0351562 0.6875 -0.390625 C 0.382812 -0.753906 0.238281 -1.207031 0.25 -1.75 C 0.269531 -2.289062 0.441406 -2.726562 0.765625 -3.0625 C 1.097656 -3.394531 1.519531 -3.550781 2.03125 -3.53125 C 2.445312 -3.519531 2.789062 -3.398438 3.0625 -3.171875 C 3.332031 -2.953125 3.488281 -2.660156 3.53125 -2.296875 Z M 2.84375 -2.328125 "/></g></g></g><g fill="#000000" fill-opacity="1"><g transform="translate(46.337643, 6.357133)"><g><path d="M 1.28125 -1.375 L 1.1875 -0.484375 L 3.09375 -0.25 L 3.015625 0.359375 L 0.375 0.046875 L 0.78125 -3.453125 L 3.328125 -3.15625 L 3.265625 -2.578125 L 1.453125 -2.796875 L 1.359375 -1.984375 L 3.046875 -1.78125 L 2.96875 -1.171875 Z M 1.28125 -1.375 "/></g></g></g><g fill="#000000" fill-opacity="1"><g transform="translate(49.844778, 6.763197)"><g><path d="M 1.59375 -2.484375 L 1.03125 0.21875 L 0.3125 0.0625 L 1.03125 -3.390625 L 2.09375 -3.171875 L 2.140625 -0.28125 L 3.328125 -2.90625 L 4.40625 -2.6875 L 3.6875 0.765625 L 2.96875 0.625 L 3.53125 -2.078125 L 2.359375 0.484375 L 1.65625 0.34375 Z M 1.59375 -2.484375 "/></g></g></g><g fill="#000000" fill-opacity="1"><g transform="translate(54.083313, 7.676611)"><g><path d="M 1.5 -1.125 L 1.234375 -0.25 L 3.078125 0.296875 L 2.90625 0.875 L 0.359375 0.109375 L 1.375 -3.265625 L 3.828125 -2.53125 L 3.65625 -1.96875 L 1.90625 -2.484375 L 1.671875 -1.703125 L 3.296875 -1.21875 L 3.125 -0.640625 Z M 1.5 -1.125 "/></g></g></g><g fill="#000000" fill-opacity="1"><g transform="translate(57.466211, 8.707491)"><g><path d="M 2.3125 0.90625 L 1.875 -1.875 L 0.984375 0.390625 L 0.3125 0.125 L 1.609375 -3.15625 L 2.296875 -2.890625 L 2.71875 -0.140625 L 3.609375 -2.375 L 4.28125 -2.109375 L 2.984375 1.171875 Z M 2.3125 0.90625 "/></g></g></g><g fill="#000000" fill-opacity="1"><g transform="translate(60.997815, 10.127762)"><g><path d="M 2.984375 -1.8125 L 1.6875 0.828125 L 1.03125 0.5 L 2.328125 -2.140625 L 1.359375 -2.609375 L 1.625 -3.140625 L 4.171875 -1.890625 L 3.90625 -1.359375 Z M 2.984375 -1.8125 "/></g></g></g><g fill="#000000" fill-opacity="1"><g transform="translate(63.942621, 11.608726)"><g/></g></g><g fill="#000000" fill-opacity="1"><g transform="translate(65.326454, 12.362123)"><g><path d="M 3.8125 -0.46875 L 3.234375 -0.84375 C 3.410156 -1.1875 3.300781 -1.484375 2.90625 -1.734375 C 2.75 -1.828125 2.601562 -1.867188 2.46875 -1.859375 C 2.332031 -1.859375 2.226562 -1.800781 2.15625 -1.6875 C 2.082031 -1.570312 2.066406 -1.460938 2.109375 -1.359375 C 2.148438 -1.253906 2.269531 -1.113281 2.46875 -0.9375 L 2.875 -0.546875 C 3.125 -0.316406 3.269531 -0.0976562 3.3125 0.109375 C 3.351562 0.328125 3.300781 0.550781 3.15625 0.78125 C 2.957031 1.09375 2.695312 1.265625 2.375 1.296875 C 2.050781 1.328125 1.695312 1.21875 1.3125 0.96875 C 0.925781 0.71875 0.679688 0.441406 0.578125 0.140625 C 0.472656 -0.160156 0.515625 -0.476562 0.703125 -0.8125 L 1.296875 -0.421875 C 1.109375 -0.078125 1.222656 0.226562 1.640625 0.5 C 1.828125 0.613281 2 0.671875 2.15625 0.671875 C 2.3125 0.671875 2.429688 0.609375 2.515625 0.484375 C 2.585938 0.367188 2.601562 0.25 2.5625 0.125 C 2.519531 0.0078125 2.40625 -0.128906 2.21875 -0.296875 L 1.875 -0.65625 C 1.59375 -0.90625 1.425781 -1.128906 1.375 -1.328125 C 1.332031 -1.535156 1.382812 -1.753906 1.53125 -1.984375 C 1.726562 -2.273438 1.972656 -2.4375 2.265625 -2.46875 C 2.566406 -2.507812 2.894531 -2.414062 3.25 -2.1875 C 3.351562 -2.125 3.445312 -2.050781 3.53125 -1.96875 C 3.625 -1.894531 3.707031 -1.800781 3.78125 -1.6875 C 3.863281 -1.582031 3.925781 -1.46875 3.96875 -1.34375 C 4.007812 -1.226562 4.015625 -1.09375 3.984375 -0.9375 C 3.960938 -0.78125 3.90625 -0.625 3.8125 -0.46875 Z M 3.8125 -0.46875 "/></g></g></g><g fill="#000000" fill-opacity="1"><g transform="translate(68.302207, 14.27945)"><g><path d="M 2.421875 0.1875 L 1.625 1.234375 L 1.03125 0.78125 L 1.828125 -0.265625 L 2.234375 -2.734375 L 2.890625 -2.25 L 2.515625 -0.546875 L 4.015625 -1.390625 L 4.65625 -0.90625 Z M 2.421875 0.1875 "/></g></g></g><g fill="#000000" fill-opacity="1"><g transform="translate(71.115753, 16.427315)"><g><path d="M 3.84375 0.140625 L 3.328125 -0.3125 C 3.546875 -0.613281 3.476562 -0.921875 3.125 -1.234375 C 3 -1.359375 2.863281 -1.425781 2.71875 -1.4375 C 2.582031 -1.457031 2.472656 -1.414062 2.390625 -1.3125 C 2.296875 -1.207031 2.265625 -1.097656 2.296875 -0.984375 C 2.328125 -0.878906 2.421875 -0.726562 2.578125 -0.53125 L 2.9375 -0.078125 C 3.132812 0.179688 3.238281 0.421875 3.25 0.640625 C 3.257812 0.859375 3.171875 1.070312 2.984375 1.28125 C 2.742188 1.550781 2.457031 1.675781 2.125 1.65625 C 1.800781 1.632812 1.472656 1.46875 1.140625 1.15625 C 0.796875 0.851562 0.597656 0.546875 0.546875 0.234375 C 0.492188 -0.078125 0.582031 -0.382812 0.8125 -0.6875 L 1.34375 -0.21875 C 1.101562 0.101562 1.171875 0.429688 1.546875 0.765625 C 1.710938 0.910156 1.867188 0.992188 2.015625 1.015625 C 2.171875 1.035156 2.300781 0.984375 2.40625 0.859375 C 2.488281 0.765625 2.519531 0.65625 2.5 0.53125 C 2.476562 0.414062 2.390625 0.257812 2.234375 0.0625 L 1.953125 -0.359375 C 1.722656 -0.640625 1.597656 -0.882812 1.578125 -1.09375 C 1.554688 -1.3125 1.640625 -1.519531 1.828125 -1.71875 C 2.054688 -1.988281 2.320312 -2.113281 2.625 -2.09375 C 2.925781 -2.082031 3.238281 -1.929688 3.5625 -1.640625 C 3.65625 -1.554688 3.738281 -1.46875 3.8125 -1.375 C 3.882812 -1.289062 3.945312 -1.1875 4 -1.0625 C 4.0625 -0.945312 4.101562 -0.828125 4.125 -0.703125 C 4.144531 -0.578125 4.128906 -0.441406 4.078125 -0.296875 C 4.035156 -0.148438 3.957031 -0.00390625 3.84375 0.140625 Z M 3.84375 0.140625 "/></g></g></g><g fill="#000000" fill-opacity="1"><g transform="translate(73.748722, 18.798442)"><g><path d="M 3.421875 -0.671875 L 1.296875 1.359375 L 0.796875 0.828125 L 2.921875 -1.203125 L 2.171875 -1.984375 L 2.59375 -2.40625 L 4.5625 -0.359375 L 4.140625 0.0625 Z M 3.421875 -0.671875 "/></g></g></g><g fill="#000000" fill-opacity="1"><g transform="translate(76.010954, 21.160765)"><g><path d="M 1.875 -0.109375 L 1.171875 0.46875 L 2.390625 1.953125 L 1.921875 2.34375 L 0.234375 0.296875 L 2.953125 -1.953125 L 4.59375 0.015625 L 4.140625 0.390625 L 2.96875 -1.015625 L 2.34375 -0.484375 L 3.421875 0.828125 L 2.953125 1.203125 Z M 1.875 -0.109375 "/></g></g></g><g fill="#000000" fill-opacity="1"><g transform="translate(78.25874, 23.883116)"><g><path d="M 2.875 -0.703125 L 0.59375 0.859375 L 0.171875 0.265625 L 3.078125 -1.734375 L 3.703125 -0.84375 L 1.75 1.28125 L 4.421875 0.203125 L 5.03125 1.109375 L 2.125 3.109375 L 1.71875 2.5 L 4 0.9375 L 1.359375 1.984375 L 0.953125 1.390625 Z M 2.875 -0.703125 "/></g></g></g></g></g></svg>